<svg width="44" height="48" viewBox="0 0 44 48" fill="none" xmlns="http://www.w3.org/2000/svg">
    <path
        d="M18.0802 0.306679C23.1077 0.306679 27.5011 1.30312 31.2604 3.296C35.0198 5.28889 37.9185 8.09704 39.9567 11.7205C42.0401 15.2986 43.0819 19.4429 43.0819 24.1533C43.0819 28.8185 42.0401 32.9628 39.9567 36.5862C37.9185 40.2096 34.9971 43.0178 31.1925 45.0107C27.4332 47.0036 23.0625 48 18.0802 48H0.212231V0.306679H18.0802ZM17.3329 37.945C21.7263 37.945 25.1459 36.7447 27.5917 34.3442C30.0375 31.9437 31.2604 28.5467 31.2604 24.1533C31.2604 19.7599 30.0375 16.3403 27.5917 13.8945C25.1459 11.4487 21.7263 10.2258 17.3329 10.2258H11.8298V37.945H17.3329Z"
        fill="black" />
</svg>