<svg width="24" height="24" viewBox="0 0 24 24" fill="none" xmlns="http://www.w3.org/2000/svg">
    <path
        d="M12 0C5.38269 0 0 5.38269 0 12C0 18.6173 5.38269 24 12 24C18.6173 24 24 18.6173 24 12C24 5.38269 18.6173 0 12 0ZM19.9356 5.53269C21.3635 7.27788 22.2288 9.49904 22.249 11.9192C21.9115 11.8471 18.5221 11.1606 15.1125 11.5904C15.0404 11.4144 14.9683 11.2385 14.8933 11.0625C14.6798 10.5635 14.4519 10.0644 14.2125 9.57692C18 8.02788 19.7192 5.82692 19.9356 5.53269ZM12 1.76538C14.6048 1.76538 16.9846 2.74327 18.7933 4.34712C18.6087 4.60962 17.0654 6.68365 13.4221 8.05096C11.7433 4.96442 9.88269 2.43173 9.59712 2.05096C10.3846 1.86058 11.1894 1.76538 12 1.76538ZM7.64135 2.74038C7.9125 3.10962 9.74423 5.65096 11.4404 8.66827C6.64615 9.94038 2.42308 9.92308 1.96442 9.91731C2.63077 6.73558 4.77404 4.09327 7.64135 2.74038ZM1.75096 12.0144C1.75096 11.9106 1.75385 11.8038 1.75673 11.7C2.20385 11.7087 7.17115 11.7721 12.2913 10.2404C12.5856 10.8144 12.8654 11.3971 13.1221 11.9798C12.9865 12.0173 12.851 12.0577 12.7183 12.101C7.43077 13.8144 4.61827 18.4731 4.38462 18.8683C2.74904 17.051 1.75096 14.6481 1.75096 12.0144ZM12 22.2635C9.62885 22.2635 7.44519 21.4558 5.70865 20.1C5.89327 19.7221 7.96731 15.7154 13.7481 13.699L13.8144 13.676C15.2538 17.4144 15.8481 20.55 16.001 21.45C14.7365 21.9904 13.3751 22.2672 12 22.2635ZM17.726 20.5125C17.6221 19.8894 17.0769 16.8894 15.7356 13.2058C18.949 12.6923 21.7702 13.5346 22.1192 13.6442C21.6635 16.4942 20.0279 18.9577 17.726 20.5125Z"
        fill="white" />
</svg>