<svg width="24" height="24" viewBox="0 0 24 24" fill="none" xmlns="http://www.w3.org/2000/svg">
    <path
        d="M11.9933 24C8.71516 24 8.32871 23.9827 7.04942 23.9268C6.0518 23.8941 5.06709 23.6916 4.1377 23.328C3.34238 23.0189 2.62012 22.5481 2.01677 21.9454C1.41343 21.3427 0.942188 20.6213 0.632982 19.827C0.282918 18.8956 0.0941049 17.9115 0.0746252 16.9168C-9.92859e-09 15.6421 0 15.2242 0 11.976C0 8.69328 0.0173237 8.31005 0.0746252 7.03925C0.094531 6.04594 0.283337 5.06322 0.632982 4.13307C0.941833 3.33777 1.41339 2.61554 2.01754 2.01249C2.62168 1.40945 3.34514 0.938843 4.1417 0.630739C5.07271 0.27971 6.0571 0.0906776 7.05208 0.0718562C8.32471 -1.33843e-07 8.74314 0 11.9933 0C15.2982 0 15.678 0.0172986 16.9373 0.0718562C17.934 0.0904856 18.9228 0.279441 19.8556 0.630739C20.652 0.9392 21.3753 1.40993 21.9794 2.01293C22.5835 2.61593 23.0551 3.33798 23.3644 4.13307C23.7202 5.07784 23.9107 6.07585 23.9254 7.08317C24 8.35795 24 8.77445 24 12.0213C24 15.2681 23.9813 15.6939 23.9254 16.9541C23.9055 17.9497 23.7162 18.9347 23.3657 19.8669C23.0557 20.6618 22.5836 21.3836 21.9793 21.9865C21.3751 22.5894 20.6519 23.0603 19.8556 23.3693C18.9228 23.7179 17.938 23.9069 16.9426 23.9268C15.67 24 15.2529 24 11.9933 24V24ZM11.948 2.10645C8.68851 2.10645 8.35003 2.12242 7.0774 2.17964C6.31736 2.18956 5.56464 2.32954 4.85197 2.59348C4.33217 2.79244 3.85988 3.09795 3.46556 3.49033C3.07124 3.8827 2.76364 4.35324 2.56258 4.87159C2.29606 5.59015 2.15614 6.34997 2.14814 7.11643C2.07751 8.40585 2.07751 8.74385 2.07751 11.976C2.07751 15.1697 2.08951 15.5569 2.14814 16.8383C2.16013 17.5968 2.30006 18.3486 2.56258 19.0605C2.97035 20.1078 3.80189 20.9355 4.8533 21.3373C5.56505 21.6029 6.31762 21.743 7.0774 21.7512C8.36735 21.8257 8.70716 21.8257 11.948 21.8257C15.2169 21.8257 15.5554 21.8097 16.8173 21.7512C17.5774 21.742 18.3303 21.602 19.0428 21.3373C19.5598 21.1368 20.0294 20.8311 20.4217 20.4396C20.814 20.0481 21.1204 19.5794 21.3215 19.0632C21.588 18.3446 21.7279 17.5835 21.7359 16.817H21.7506C21.8079 15.5449 21.8079 15.2056 21.8079 11.9548C21.8079 8.70393 21.7932 8.36194 21.7359 7.09115C21.7239 6.33328 21.5838 5.58288 21.3215 4.87159C21.1209 4.35469 20.8147 3.88517 20.4223 3.49295C20.03 3.10073 19.5602 2.7944 19.0428 2.59348C18.3304 2.32825 17.5775 2.18824 16.8173 2.17964C15.5287 2.10645 15.1916 2.10645 11.948 2.10645V2.10645ZM11.9933 18.1224C10.7748 18.1232 9.58335 17.7631 8.56975 17.0877C7.55616 16.4123 6.76592 15.4519 6.29898 14.328C5.83205 13.204 5.7094 11.9671 5.94655 10.7735C6.1837 9.57999 6.76999 8.48349 7.63127 7.6227C8.49255 6.76192 9.59013 6.17553 10.7852 5.93769C11.9802 5.69985 13.2191 5.82125 14.345 6.28654C15.471 6.75182 16.4335 7.54009 17.1107 8.55164C17.788 9.5632 18.1497 10.7526 18.1499 11.9694C18.1478 13.5997 17.4987 15.1627 16.3447 16.316C15.1907 17.4693 13.626 18.1189 11.9933 18.1224V18.1224ZM11.9933 7.97472C11.2027 7.97472 10.4297 8.20885 9.77229 8.64749C9.11486 9.08614 8.60245 9.70961 8.29987 10.4391C7.99729 11.1685 7.91812 11.9712 8.07237 12.7455C8.22663 13.5199 8.60738 14.2312 9.16648 14.7895C9.72558 15.3478 10.4379 15.728 11.2134 15.882C11.9889 16.0361 12.7927 15.957 13.5232 15.6549C14.2537 15.3527 14.8781 14.8411 15.3174 14.1846C15.7567 13.5281 15.9911 12.7563 15.9911 11.9667C15.9887 10.9087 15.5667 9.89479 14.8175 9.14667C14.0683 8.39855 13.0529 7.97718 11.9933 7.97472ZM18.3898 7.02595C18.2011 7.02525 18.0145 6.98745 17.8405 6.91472C17.6664 6.84198 17.5085 6.73574 17.3756 6.60204C17.1072 6.33203 16.9572 5.9666 16.9586 5.58616C16.96 5.20572 17.1127 4.84142 17.3831 4.5734C17.6535 4.30538 18.0195 4.15561 18.4004 4.15702C18.7814 4.15843 19.1463 4.31092 19.4147 4.58093C19.6831 4.85094 19.8331 5.21636 19.8317 5.59681C19.8302 5.97725 19.6775 6.34155 19.4071 6.60957C19.1367 6.87758 18.7708 7.02736 18.3898 7.02595Z"
        fill="white" />
</svg>