<svg width="24" height="20" viewBox="0 0 24 20" fill="none" xmlns="http://www.w3.org/2000/svg">
    <path
        d="M24 2.96027C23.1174 3.33027 22.1693 3.58027 21.1726 3.69327C22.201 3.11106 22.9704 2.19474 23.3373 1.11527C22.371 1.65826 21.3135 2.04047 20.2107 2.24527C19.4691 1.49614 18.4868 0.999597 17.4164 0.832744C16.3459 0.665892 15.2472 0.838062 14.2907 1.32252C13.3343 1.80698 12.5737 2.57663 12.127 3.51197C11.6803 4.44732 11.5725 5.49602 11.8203 6.49527C9.86244 6.40227 7.94711 5.92082 6.19863 5.08218C4.45016 4.24353 2.90761 3.06643 1.6711 1.62727C1.2483 2.31727 1.0052 3.11727 1.0052 3.96927C1.00473 4.73627 1.20437 5.49151 1.58641 6.168C1.96846 6.84449 2.52109 7.42131 3.19528 7.84727C2.4134 7.82373 1.64877 7.62385 0.965031 7.26427V7.32427C0.964952 8.40001 1.35827 9.44265 2.07823 10.2753C2.7982 11.1079 3.80048 11.6792 4.915 11.8923C4.18968 12.078 3.42923 12.1053 2.69109 11.9723C3.00555 12.8979 3.61807 13.7073 4.44291 14.2872C5.26776 14.8671 6.26363 15.1884 7.29111 15.2063C5.5469 16.5017 3.39282 17.2044 1.17537 17.2013C0.782575 17.2014 0.39011 17.1797 0 17.1363C2.25083 18.5054 4.87097 19.2321 7.5469 19.2293C16.6053 19.2293 21.5573 12.1313 21.5573 5.97527C21.5573 5.77527 21.552 5.57327 21.5425 5.37327C22.5057 4.71424 23.3372 3.89817 23.9979 2.96327L24 2.96027Z"
        fill="white" />
</svg>