<svg width="18" height="19" viewBox="0 0 18 19" fill="none" xmlns="http://www.w3.org/2000/svg">
    <path
        d="M6.72335e-07 7.73725C-0.0024799 7.88928 0.041308 8.03848 0.125558 8.16505C0.209809 8.29163 0.330542 8.38961 0.471751 8.446L7.6725 11.3267L10.5532 18.5282C10.6089 18.6675 10.705 18.7869 10.8292 18.871C10.9534 18.9551 11.1 19.0001 11.25 19H11.262C11.4139 18.9976 11.5615 18.9491 11.6852 18.861C11.809 18.7729 11.9031 18.6493 11.955 18.5065L17.955 2.0065C18.0041 1.87227 18.0139 1.7268 17.9831 1.58722C17.9523 1.44764 17.8822 1.31977 17.7812 1.21866C17.6802 1.11755 17.5524 1.04741 17.4128 1.01651C17.2732 0.985615 17.1278 0.995237 16.9935 1.04425L0.493501 7.04425C0.350675 7.09632 0.227023 7.19053 0.138903 7.31441C0.0507826 7.43828 0.00234606 7.58599 6.72335e-07 7.738V7.73725Z"
        fill="#3D3E48" />
</svg>