<svg width="44" height="44" viewBox="0 0 44 44" fill="none" xmlns="http://www.w3.org/2000/svg">
    <path
        d="M25.2944 5.12875C23.0984 5.12875 20.9922 6.00113 19.4394 7.55398C17.8865 9.10683 17.0142 11.2129 17.0142 13.409C17.0142 19.8898 23.3364 27.687 24.9928 29.6019C25.0818 29.7037 25.2074 29.7661 25.3422 29.7756C25.4771 29.785 25.6101 29.7407 25.7124 29.6523L25.7628 29.6019C27.3972 27.6797 33.5756 19.8889 33.5756 13.409C33.5756 12.3215 33.3614 11.2447 32.9452 10.2401C32.529 9.23541 31.919 8.32256 31.15 7.55365C30.381 6.78475 29.4681 6.17485 28.4634 5.75878C27.4587 5.34272 26.3819 5.12863 25.2944 5.12875V5.12875ZM25.2944 16.9125C24.4906 16.9123 23.7049 16.6738 23.0366 16.2271C22.3684 15.7804 21.8476 15.1456 21.54 14.403C21.2325 13.6603 21.1521 12.8432 21.309 12.0548C21.4658 11.2665 21.8529 10.5423 22.4213 9.97396C22.9897 9.40559 23.7138 9.0185 24.5022 8.86164C25.2905 8.70478 26.1077 8.7852 26.8503 9.09272C27.593 9.40023 28.2278 9.92105 28.6745 10.5893C29.1211 11.2576 29.3596 12.0433 29.3598 12.8471V12.8572C29.3574 13.9337 28.928 14.9653 28.1658 15.7256C27.4036 16.4859 26.371 16.9127 25.2944 16.9125V16.9125Z"
        stroke="#3D3E48" stroke-width="2" stroke-linecap="round" stroke-linejoin="round" />
    <path
        d="M33.4162 15.2882L34.4933 15.2148L38.9584 37.2231L29.6781 38.8713L15.0893 37.3294L5.04175 38.8713L7.75325 16.2782L15.9932 15.2148L17.1747 15.2735M15.9932 15.2148L15.4047 37.3633M29.6781 38.8713L28.1106 26.5668"
        stroke="#3D3E48" stroke-width="2" stroke-linecap="round" stroke-linejoin="round" />
</svg>