<svg width="40" height="40" viewBox="0 0 40 40" fill="none" xmlns="http://www.w3.org/2000/svg">
    <path
        d="M10.8334 12.6667C9.91675 12.6667 8.08341 13.2167 8.08341 15.4167C8.08341 17.6167 9.91675 18.1667 10.8334 18.1667M1.66675 29.1667V34.6667C1.66675 35.6391 2.05306 36.5718 2.74069 37.2594C3.42832 37.947 4.36095 38.3333 5.33341 38.3333H25.5001M1.66675 29.1667V9C1.66675 8.02754 2.05306 7.09491 2.74069 6.40728C3.42832 5.71964 4.36095 5.33333 5.33341 5.33333H10.8334M1.66675 29.1667C4.23891 28.7377 8.33458 28.6295 12.5659 29.6122M25.5001 38.3333H31.0001C31.9725 38.3333 32.9052 37.947 33.5928 37.2594C34.2804 36.5718 34.6667 35.6391 34.6667 34.6667V23.6667M25.5001 38.3333C22.3761 33.2587 17.3839 30.7287 12.5659 29.6122M12.5659 29.6122C14.5734 27.2875 17.5709 25.1205 21.9086 23.6667M16.3334 16.3333V7.16667C16.3334 6.68044 16.5266 6.21412 16.8704 5.87031C17.2142 5.52649 17.6805 5.33333 18.1667 5.33333H20.0001L23.6667 1.66667H31.0001L34.6667 5.33333H36.5001C36.9863 5.33333 37.4526 5.52649 37.7964 5.87031C38.1403 6.21412 38.3334 6.68044 38.3334 7.16667V16.3333C38.3334 16.8196 38.1403 17.2859 37.7964 17.6297C37.4526 17.9735 36.9863 18.1667 36.5001 18.1667H18.1667C17.6805 18.1667 17.2142 17.9735 16.8704 17.6297C16.5266 17.2859 16.3334 16.8196 16.3334 16.3333Z"
        stroke="#3D3E48" stroke-width="2" stroke-linecap="round" stroke-linejoin="round" />
    <path
        d="M27.3333 12.6667C28.3459 12.6667 29.1667 11.8459 29.1667 10.8333C29.1667 9.82081 28.3459 9 27.3333 9C26.3208 9 25.5 9.82081 25.5 10.8333C25.5 11.8459 26.3208 12.6667 27.3333 12.6667Z"
        stroke="#3D3E48" stroke-width="2" stroke-linecap="round" stroke-linejoin="round" />
</svg>