<svg width="44" height="40" viewBox="0 0 44 40" fill="none" xmlns="http://www.w3.org/2000/svg">
    <g clip-path="url(#clip0_19_308)">
        <path
            d="M42.35 0H29.15C28.2436 0 26.9742 0.5975 26.334 1.325L9.96816 19.9225C9.65957 20.2748 9.48633 20.7517 9.48633 21.2488C9.48633 21.7458 9.65957 22.2227 9.96816 22.575L24.134 38.6725C24.444 39.0232 24.8636 39.22 25.3011 39.22C25.7385 39.22 26.1581 39.0232 26.4682 38.6725L42.834 20.075C43.4764 19.345 44 17.905 44 16.875V1.875C43.9988 1.37812 43.8246 0.901978 43.5154 0.550633C43.2062 0.199288 42.7872 0.00131973 42.35 0V0ZM34.1 15C33.6665 14.9998 33.2372 14.9026 32.8368 14.714C32.4363 14.5253 32.0725 14.2489 31.7661 13.9004C31.4596 13.5519 31.2166 13.1383 31.0508 12.6831C30.8851 12.228 30.7998 11.7401 30.8 11.2475C30.8001 10.7549 30.8856 10.2671 31.0517 9.81205C31.2177 9.35699 31.461 8.94355 31.7676 8.59533C32.0742 8.24711 32.4382 7.97093 32.8388 7.78257C33.2394 7.5942 33.6687 7.49734 34.1022 7.4975C34.9777 7.49783 35.8172 7.89337 36.4361 8.5971C37.0549 9.30083 37.4025 10.2551 37.4022 11.25C37.4019 12.2449 37.0538 13.1989 36.4345 13.9022C35.8152 14.6054 34.9755 15.0003 34.1 15Z"
            fill="#3D3E48" />
        <path
            d="M4.39991 21.25L23.0999 0H20.3499C19.4435 0 18.1741 0.5975 17.5339 1.325L1.16811 19.9225C0.859522 20.2748 0.686279 20.7517 0.686279 21.2488C0.686279 21.7458 0.859522 22.2227 1.16811 22.575L15.3339 38.6725C15.6439 39.0232 16.0636 39.22 16.501 39.22C16.9384 39.22 17.3581 39.0232 17.6681 38.6725L18.7021 37.4975L4.40211 21.2475L4.39991 21.25Z"
            fill="#3D3E48" />
    </g>
    <defs>
        <clipPath id="clip0_19_308">
            <rect width="44" height="40" fill="white" />
        </clipPath>
    </defs>
</svg>