<svg width="48" height="48" viewBox="0 0 48 48" fill="none" xmlns="http://www.w3.org/2000/svg">
    <path
        d="M41.9318 1.5L30.7035 7.3125L20.2972 2.8125L6.06825 3.75L1.5 43.6875L16.2113 42.4372L32.5395 46.5L46.5 41.4375L41.9318 1.5ZM40.689 3.83175L44.8755 40.431L32.8275 44.7998L32.7607 43.3942L43.389 39.3817L39.7575 5.937L31.1737 10.008L31.1152 8.7885L31.3935 8.64525L40.689 3.83175ZM31.9613 26.5868C32.1278 26.2328 32.2913 25.7355 32.3693 25.038C32.3693 25.038 33.1958 25.0785 34.2127 27.2948C34.2127 27.2948 34.6567 27.2505 34.4355 25.8037C34.4355 25.8037 36.0233 25.164 35.1667 22.3507C35.1667 22.3507 36.4987 24.1852 36.0563 21.8002C36.0563 21.8002 37.5173 20.0093 35.772 18.8182C35.772 18.8182 35.832 17.4975 36.8812 17.667C36.8812 17.667 37.9297 14.94 37.4242 18.1777C37.4242 18.1777 37.4543 18.8183 38.121 19.5405C38.121 19.5405 38.4083 18.4762 37.899 17.3287C37.899 17.3287 38.9482 15.3653 38.8522 13.6635C38.8522 13.6635 35.4533 14.9242 31.671 14.5477C31.671 14.5477 31.8555 13.8442 31.3387 13.449L31.233 11.2253L31.323 11.1825L38.811 7.632L42.177 38.6377L32.7052 42.2145L31.9613 26.5868ZM30.5828 13.3912C30.192 13.9485 29.1075 15.6622 29.7668 16.6882C29.7668 16.6882 29.4472 18.9105 29.0017 15.669C29.0017 15.669 28.2735 17.5823 27.288 17.1555C27.288 17.1555 27.0173 19.092 26.397 17.7945C26.397 17.7945 26.9047 18.0082 27.0165 17.412C27.0165 17.412 25.5847 15.8783 24.729 18.1973C24.729 18.1973 24.03 18.4755 24.3008 19.563C24.3008 19.563 24.7913 18.666 25.0462 20.0317C25.0462 20.0317 25.317 19.8188 25.4303 18.0705C25.4303 18.0705 26.1097 17.7315 25.5847 19.113C25.5847 19.113 27.1418 19.1378 24.729 20.5185C24.729 20.5185 24.5955 20.496 24.4905 19.9665C24.4905 19.9665 24.1252 21.2415 23.3768 21.6937C23.3768 21.6937 23.5522 22.203 22.9972 22.437C22.9972 22.437 22.6965 23.226 23.412 23.226C23.412 23.226 24.0308 21.33 25.2068 22.8218C25.2068 22.8218 25.431 22.737 25.0808 21.9907C25.0808 21.9907 25.6987 22.2278 25.938 23.205C25.938 23.205 26.3197 23.139 26.3805 22.2892C26.3805 22.2892 26.8598 21.2032 27.639 22.482C27.639 22.482 26.6048 22.1828 26.3363 23.226C26.3363 23.226 26.8253 23.0123 27.1297 23.3115C27.1297 23.3115 27.1605 23.7983 26.8485 23.9865C26.9835 24.24 27.1297 24.483 27.3337 24.6885C27.3906 24.7414 27.4274 24.8124 27.4379 24.8893C27.4484 24.9663 27.432 25.0445 27.3915 25.1107C27.942 26.0527 28.959 27.3068 29.6707 25.305C29.6707 25.305 28.7183 25.8458 28.3995 24.354C28.3995 24.354 30.3218 24.5985 31.2083 26.5267L31.9545 42.2378L17.0055 38.0452L17.2297 35.8275C17.5402 36.6232 17.904 36.9465 17.904 36.9465C17.4817 33.4853 19.9792 31.2675 19.9792 31.2675C20.4645 28.8915 19.2307 27.825 18.087 27.345L18.6742 21.534C18.9097 21.2407 19.0485 21.045 19.0485 21.045C18.9638 20.7533 18.8813 20.4975 18.8025 20.2635L19.3717 14.625C19.8503 15.2078 19.905 15.7373 19.7708 16.2188C19.155 18.4335 19.947 19.1122 19.947 19.1122C20.4277 17.2417 22.0778 16.9432 22.0778 16.9432C21.9832 15.1943 22.9988 13.206 22.9988 13.206C21.894 11.3077 20.3138 12.588 19.4858 13.494L19.5502 12.8573C19.7197 12.639 19.8967 12.4012 20.088 12.1298C20.088 12.1298 19.9298 12.021 19.6425 11.9415L20.1465 6.95025L30.4095 11.2043L30.4815 11.2343L30.5828 13.3912ZM18.8962 11.865C18.3848 11.889 17.73 12.0653 16.9598 12.5978C16.9598 12.5978 16.5938 15.9592 18.6952 13.8525L18.4605 16.1782C18.186 15.2602 17.535 14.9408 17.535 14.9408C16.8975 15.3263 16.9613 15.8363 16.9613 15.8363C17.5395 15.9233 17.8927 16.6192 18.1005 17.2717C17.9835 17.451 17.7833 17.6558 17.4375 17.6895C17.4375 17.6895 17.8403 18.2948 18.2302 18.4642L18.1875 18.8812C17.28 17.5215 16.887 20.2537 16.887 20.2537C14.6438 17.754 17.4825 16.503 17.4825 16.503C15.7448 15.7688 14.94 13.6642 14.94 13.6642C14.8553 14.9715 14.346 14.9137 14.346 14.9137C10.3635 12.5858 9.6465 16.335 9.6465 16.335C10.2788 18.321 8.9235 18.5483 8.9235 18.5483C10.236 18.7747 10.9132 16.9575 10.9132 16.9575C13.6267 18.321 12.186 23.2057 12.186 23.2057C13.2442 23.8283 13.5413 25.875 13.5413 25.875C14.2785 26.0985 15.0337 26.55 15.5632 26.9077C15.666 26.8155 15.7718 26.7278 15.8827 26.646C14.6453 25.7715 14.643 24.3555 14.643 24.3555C15.7657 24.3555 16.9597 23.388 17.8215 22.4985L17.3565 27.1057C17.1472 27.0531 16.9351 27.0123 16.7213 26.9835C16.5213 27.0794 16.3335 27.1987 16.1617 27.339L16.2533 27.4103C15.0052 29.808 16.6927 30.7695 16.9725 30.9082L16.2562 37.9958L6.32925 38.772L9.6405 7.4115L19.404 6.837L18.8962 11.865ZM16.8907 39.1823L32.01 43.4227L32.0775 44.8395L16.7055 41.0145L16.8907 39.1823ZM30.3645 8.8005L30.4215 9.993L20.265 5.78325L20.3955 4.48875L30.108 8.6895L30.3645 8.8005ZM7.41675 5.1645L19.6545 4.35825L19.5187 5.70375L8.622 6.34425L5.06925 39.9997L16.143 39.132L15.9585 40.953L3.19875 42.0382L7.41675 5.1645Z"
        fill="#3D3E48" />
    <path
        d="M24.0465 27.4628C24.0465 27.4628 25.638 27.7605 25.0013 30.8273C25.0013 30.8273 25.2555 33.2175 26.6513 32.9993C26.6513 32.9993 27.0323 29.55 28.812 26.9078C28.812 26.9078 28.0905 27.6263 27.2723 25.2435C27.1485 25.3335 26.9805 25.3545 26.8403 25.215C26.4878 24.8633 26.2748 24.42 26.0453 23.9745C26.0127 23.9104 25.9994 23.8382 26.007 23.7668C24.849 23.3348 22.5038 22.9013 22.1715 26.3115C22.1723 26.3115 22.6155 28.659 24.0465 27.4628ZM23.3175 19.4963C23.427 21.0323 23.6325 21.4988 23.9018 20.8605C24.1725 20.2275 23.3175 19.4963 23.3175 19.4963ZM22.8368 20.946C22.8368 20.946 23.2845 20.88 23.1563 20.3168C23.1563 20.3168 22.8368 20.3498 22.8368 20.946ZM22.6643 17.8583C22.6643 17.8583 21.5355 17.8583 21.9345 18.435C22.3313 19.0103 22.6643 17.8583 22.6643 17.8583ZM28.305 31.851C28.305 31.851 28.65 31.1475 28.6388 30.063C28.6395 30.063 27.5415 31.317 28.305 31.851ZM35.4195 27.4425C35.4195 27.4425 34.6245 28.1678 34.77 28.8285C34.9133 29.4915 35.6108 28.698 35.4195 27.4425ZM38.5988 29.7878C38.9475 29.1773 36.6885 28.4213 36.6885 28.4213C37.1348 29.0828 38.2823 30.3323 38.5988 29.7878ZM36.072 29.9183C36.6023 29.0108 34.467 29.445 34.467 29.445C34.467 29.445 35.8658 30.2768 36.072 29.9183ZM36.9113 30.1073C36.9113 30.1073 36.4838 31.0635 34.8953 31.4663C34.8953 31.4663 35.2305 32.235 34.8953 33.6848C34.8953 33.6848 36.4988 31.6388 37.4228 34.5983C37.4228 34.5983 38.2155 35.0288 38.7713 32.349C38.7713 32.349 38.1045 31.3838 37.8825 30.0113C37.8833 30.0105 37.6628 31.7693 36.9113 30.1073ZM37.2248 21.3825C37.326 21.2978 37.4048 21.267 37.4048 21.267C36.627 20.0093 36.9113 21.822 36.9113 21.822C36.9615 21.7028 37.0208 21.6113 37.0815 21.534C37.1228 22.071 36.9938 22.8713 36.1553 23.6318C36.1545 23.6318 37.953 22.9538 37.2248 21.3825ZM23.499 11.9663C23.8913 11.0468 22.6583 9.99976 22.6583 9.99976C22.8165 12.21 23.1098 12.885 23.499 11.9663ZM21.966 12.087C21.966 12.087 22.6043 11.9925 22.4235 11.184C22.4235 11.184 21.966 11.2298 21.966 12.087Z"
        fill="#3D3E48" />
</svg>