<svg width="24" height="41" viewBox="0 0 24 41" fill="none" xmlns="http://www.w3.org/2000/svg">
    <path
        d="M1.5 0C1.10218 0 0.720644 0.158035 0.43934 0.43934C0.158035 0.720644 0 1.10218 0 1.5V15.5C0.000365863 18.2901 1.01489 20.985 2.85461 23.0826C4.69432 25.1802 7.23379 26.5377 10 26.902V37.016L5.506 37C5.10818 36.9984 4.72601 37.1549 4.44358 37.4351C4.16115 37.7153 4.00159 38.0962 4 38.494C3.99841 38.8918 4.15492 39.274 4.4351 39.5564C4.71528 39.8388 5.09617 39.9984 5.494 40L11.494 40.022H11.504L18.504 40C18.9018 39.9989 19.2829 39.8399 19.5635 39.5578C19.844 39.2758 20.0011 38.8938 20 38.496C19.9989 38.0982 19.8399 37.7171 19.5578 37.4365C19.2758 37.156 18.8938 36.9989 18.496 37L13 37.018V26.912C16.0336 26.5449 18.8277 25.0795 20.8544 22.7926C22.8811 20.5057 24.0001 17.5557 24 14.5V1.5C24 1.10218 23.842 0.720644 23.5607 0.43934C23.2794 0.158035 22.8978 0 22.5 0H1.5ZM3 10V3H21V10H3ZM19.366 15.414C19.0633 17.0068 18.2495 18.4574 17.048 19.546C16.0595 20.4464 14.8484 21.0665 13.54 21.342C13.2804 21.3964 13.0097 21.3454 12.7877 21.2002C12.5657 21.0551 12.4104 20.8276 12.356 20.568C12.3016 20.3084 12.3526 20.0377 12.4978 19.8157C12.6429 19.5937 12.8704 19.4384 13.13 19.384C14.0897 19.1837 14.978 18.7292 15.702 18.068C16.5797 17.267 17.1758 16.2045 17.402 15.038C17.456 14.7816 17.6084 14.5565 17.8266 14.4114C18.0448 14.2662 18.3112 14.2125 18.5686 14.2617C18.826 14.311 19.0537 14.4594 19.2029 14.6748C19.352 14.8903 19.4106 15.1558 19.366 15.414Z"
        fill="#3D3E48" />
</svg>