<svg width="38" height="42" viewBox="0 0 38 42" fill="none" xmlns="http://www.w3.org/2000/svg">
    <path
        d="M37.25 0C37.4489 0 37.6397 0.0790178 37.7803 0.21967C37.921 0.360322 38 0.551088 38 0.75V30.0645L37.997 30.1845C37.9715 30.7576 37.9114 31.3287 37.817 31.8945C37.5914 33.279 37.1622 34.6225 36.5435 35.8815C35.801 37.3665 34.6505 38.9205 32.8835 40.0995C31.106 41.2845 28.8335 42 26 42C23.1695 42 20.8955 41.286 19.115 40.0995C17.348 38.9205 16.199 37.3665 15.455 35.8815C14.8366 34.622 14.408 33.2779 14.183 31.893C14.0886 31.3276 14.0285 30.7571 14.003 30.1845C14.0016 30.1445 14.0006 30.1045 14 30.0645V30H12.5255C12.1248 30.0016 11.7397 29.8449 11.454 29.564C11.1683 29.2831 11.0051 28.9006 11 28.5C11 27.6765 11.6885 27 12.5255 27H19.9745C20.8265 27 21.5 27.6765 21.5 28.5C21.5 29.3235 20.8115 30 19.9745 30H18.5V30.0345L18.5135 30.2595C18.5285 30.465 18.5585 30.7755 18.6215 31.1535C18.749 31.92 19.001 32.9085 19.481 33.8685C19.9565 34.821 20.636 35.7045 21.611 36.354C22.5725 36.996 23.9555 37.5 26 37.5C28.0445 37.5 29.4275 36.996 30.389 36.354C31.364 35.7045 32.0435 34.821 32.519 33.8685C32.999 32.9085 33.251 31.92 33.3785 31.1535C33.4401 30.7831 33.4802 30.4095 33.4985 30.0345L33.5 29.991V0.75C33.5 0.551088 33.579 0.360322 33.7197 0.21967C33.8603 0.0790178 34.0511 0 34.25 0H37.25Z"
        fill="#3D3E48" />
    <path
        d="M12.5465 20.607C11.5624 21.3489 10.3634 21.7501 9.131 21.75C7.99773 21.7512 6.87535 21.5289 5.82805 21.096C4.78074 20.663 3.82906 20.0279 3.02745 19.2268C2.22583 18.4257 1.58999 17.4745 1.15631 16.4275C0.722627 15.3805 0.499606 14.2583 0.500001 13.125C0.499606 11.9917 0.722627 10.8695 1.15631 9.82251C1.58999 8.7755 2.22583 7.82427 3.02745 7.02321C3.82906 6.22214 4.78074 5.58697 5.82805 5.15402C6.87535 4.72106 7.99773 4.49882 9.131 4.5H23.3405C25.6314 4.4992 27.8292 5.40654 29.4524 7.02323C31.0756 8.63992 31.9917 10.8341 32 13.125C32.0004 14.2583 31.7774 15.3805 31.3437 16.4275C30.91 17.4745 30.2742 18.4257 29.4726 19.2268C28.6709 20.0279 27.7193 20.663 26.672 21.096C25.6247 21.5289 24.5023 21.7512 23.369 21.75C22.1285 21.75 20.954 21.345 19.997 20.64C19.905 21.5615 19.4736 22.4159 18.7866 23.0369C18.0995 23.6579 17.2061 24.0012 16.28 24C14.33 24 12.7265 22.509 12.5465 20.607ZM29.5475 13.125C29.5459 11.4796 28.8914 9.90203 27.7276 8.73881C26.5638 7.57559 24.9859 6.9218 23.3405 6.921H9.131C7.4853 6.9214 5.90706 7.57502 4.74296 8.73828C3.57885 9.90154 2.92409 11.4793 2.9225 13.125C2.92409 14.7707 3.57885 16.3485 4.74296 17.5117C5.90706 18.675 7.4853 19.3286 9.131 19.329C10.4465 19.329 11.6135 18.5505 12.122 17.34L12.7505 15.861C13.0372 15.1736 13.5213 14.5865 14.1414 14.174C14.7616 13.7616 15.4902 13.5421 16.235 13.5435C16.9795 13.5437 17.7073 13.7638 18.3272 14.1761C18.9471 14.5883 19.4315 15.1745 19.7195 15.861L20.3495 17.34C20.595 17.9305 21.0103 18.4348 21.5428 18.7889C22.0753 19.1431 22.701 19.331 23.3405 19.329C24.9859 19.3282 26.5638 18.6744 27.7276 17.5112C28.8914 16.348 29.5459 14.7704 29.5475 13.125Z"
        fill="#3D3E48" />
</svg>