<svg width="48" height="64" viewBox="0 0 48 64" fill="none" xmlns="http://www.w3.org/2000/svg">
    <g clip-path="url(#clip0_19_512)">
        <path
            d="M24.725 53.4752C26.3375 54.9377 28.9375 57.6377 28.875 59.8127C28.875 59.9127 28.8625 60.0127 28.8625 60.1252C28.6375 62.6002 26.5125 64.0127 23.975 64.0002C20.85 63.9877 18.9875 61.9002 19.1375 59.5252C19.2625 57.5002 21.7 54.9377 23.1875 53.5752C23.475 53.3127 23.525 53.2377 23.8875 53.1252C24.3125 53.1252 24.375 53.1627 24.725 53.4752V53.4752ZM41.4875 8.41265C39.45 5.20015 36.6625 3.33765 33.575 1.90015C30.3875 0.562654 26.75 -0.0248462 24 0.00015379C18.4875 0.00015379 15.1 1.65015 13.8625 2.16265C7.16245 5.65015 3.31245 10.9002 3.49995 19.8252C4.38745 30.1002 15.625 41.8252 22.975 49.0502C23.1875 49.2502 23.5375 49.6127 23.75 49.6877L24.1625 49.7002C24.425 49.6127 24.3875 49.6377 24.6 49.4377C31.1375 43.2877 42.1875 31.2127 44.0875 22.4752C44.9625 17.5752 44.475 13.4127 41.4875 8.41265V8.41265ZM23.35 43.9877C19.85 37.6002 15.2 27.6502 14.6875 20.3627C14.2625 14.4252 16.1125 3.96265 23.35 3.27515V43.9877ZM41.0875 22.5002C39.0375 29.6002 31.425 38.5002 26.225 43.7877C29.7 37.3002 34.375 27.1252 34.625 19.8002C34.825 14.0627 33.4 6.57515 28.625 3.37515C39.725 5.66265 43.0625 15.6377 41.0875 22.5002Z"
            fill="#3D3E48" />
    </g>
    <defs>
        <clipPath id="clip0_19_512">
            <rect width="48" height="64" fill="white" />
        </clipPath>
    </defs>
</svg>