<svg width="48" height="48" viewBox="0 0 48 48" fill="none" xmlns="http://www.w3.org/2000/svg">
    <path
        d="M5.21804 12.532C5.58404 12.04 6.06604 11.374 6.45204 10.898C7.60804 9.586 7.75804 9.414 8.81004 8.444C9.12204 8.188 9.49204 7.88 9.85404 7.59C7.18404 9.85 6.84404 12.352 9.29404 13.898C9.29004 13.898 9.29004 13.898 9.29004 13.902C12.716 15.966 20.224 15.52 26.148 12.876C31.886 10.316 34.004 6.654 31.172 4.478C28.686 4.012 25.722 3.958 22.586 4.378L22.26 3.84L22.53 2.948C24.374 2.782 26.126 2.822 27.638 3.08C28.004 3.142 28.486 3.248 28.846 3.324C29.542 3.494 29.92 3.596 30.374 3.742C30.838 3.88 31.234 4.018 31.924 4.274C32.6 4.54 32.892 4.66 33.434 4.93C34.041 5.20693 34.6307 5.52016 35.2 5.868C39.712 8.706 36.906 13.884 28.944 17.432C21.004 20.968 10.886 21.524 6.35204 18.72C6.35004 18.716 6.34404 18.712 6.33204 18.708H6.34004C3.86404 17.14 3.60404 14.864 5.21804 12.532ZM25.876 32.372L25.812 29.184L23.546 26.664C16.06 28.36 8.70204 27.996 4.61004 25.586C4.59604 25.57 4.56204 25.554 4.54804 25.538C2.23204 24.112 1.66004 22.272 1.83404 20.272C1.29204 23.198 1.24804 24.254 1.32604 26.758C1.42204 28.326 2.32804 29.772 4.15004 30.912L4.16404 30.928C8.52604 33.64 17.614 34.228 25.876 32.372ZM35.326 36.022C24.76 40.26 11.536 40.51 5.79204 36.588C6.41235 38.1039 7.2564 39.5183 8.29604 40.784C13.568 44.384 25.706 44.154 35.4 40.264C41.074 37.99 44.654 34.964 45.594 32.128L45.858 31.274C46.484 29.11 46.602 27.308 46.702 25.704C46.588 29.186 42.486 33.146 35.326 36.022ZM12.002 44.184C12.334 44.5 13.378 45.782 18.668 47.198C20.098 47.514 23.698 48.528 30.348 47.054L30.388 46.448L29.862 45.624C23.692 47.084 16.838 46.596 12.002 44.184ZM27.27 18.966L32.888 23.224C32.888 23.224 34.09 24.09 32.956 24.698C31.826 25.3 28.924 26.774 28.924 26.774L26.058 25.704L24.62 26.344L27.156 28.546L27.176 31.972L28.666 31.31L29.654 28.416C29.654 28.416 32.688 27.248 33.892 26.808C35.102 26.378 34.94 27.85 34.94 27.85L34.344 34.872L36.324 33.992L39.584 24.518C39.584 24.518 41.312 23.678 42.528 22.94C43.742 22.202 44.158 20.978 44.158 20.978C44.158 20.978 42.974 20.468 41.61 20.878C40.246 21.284 38.468 22.008 38.468 22.008L29.244 18.09L27.27 18.966ZM15.384 5.494L19.198 8.532L20.24 8.376L18.164 5.65C18.164 5.65 17.712 5.086 18.32 4.952C18.932 4.816 20.48 4.5 20.48 4.5L21.644 5.43L22.428 5.314L21.54 3.902L22.008 2.336L21.25 2.446L20.352 3.638C20.352 3.638 18.776 3.786 18.156 3.838C17.532 3.886 17.8 3.216 17.8 3.216L18.996 0L17.948 0.154L15.188 4.172C15.188 4.172 14.268 4.34 13.602 4.53C12.934 4.718 12.582 5.234 12.582 5.234C12.582 5.234 13.072 5.63 13.762 5.616C14.458 5.602 15.384 5.494 15.384 5.494ZM34.234 44.53L31.766 43.24L31.198 43.438L32.66 44.746C32.66 44.746 32.972 45.012 32.644 45.154C32.316 45.294 31.48 45.638 31.48 45.638L30.79 45.33L30.38 45.478L30.954 46.09L30.898 46.984L31.326 46.836L31.646 46.11C31.646 46.11 32.514 45.852 32.86 45.76C33.204 45.666 33.126 46.07 33.126 46.07L32.8 48L33.37 47.802L34.488 45.25C34.488 45.25 34.982 45.056 35.336 44.878C35.69 44.7 35.83 44.372 35.83 44.372C35.83 44.372 35.516 44.2 35.128 44.286C34.738 44.368 34.234 44.53 34.234 44.53Z"
        fill="#3D3E48" />
</svg>