<svg width="44" height="44" viewBox="0 0 44 44" fill="none" xmlns="http://www.w3.org/2000/svg">
    <path fill-rule="evenodd" clip-rule="evenodd"
        d="M15.4826 5.808C15.7516 5.6288 16.0632 5.5239 16.3858 5.50394C16.7084 5.48398 17.0305 5.54966 17.3196 5.69433L27.5001 10.7837L37.6806 5.69433C37.96 5.5547 38.2705 5.48878 38.5826 5.50284C38.8946 5.51689 39.1979 5.61045 39.4637 5.77464C39.7294 5.93884 39.9488 6.16821 40.1011 6.441C40.2533 6.71379 40.3332 7.02095 40.3334 7.33333V29.3333C40.3335 29.6351 40.259 29.9322 40.1167 30.1983C39.9744 30.4644 39.7686 30.6912 39.5176 30.8587L28.5176 38.192C28.2486 38.3712 27.937 38.4761 27.6144 38.4961C27.2918 38.516 26.9696 38.4503 26.6806 38.3057L16.5001 33.2163L6.31958 38.3057C6.04014 38.4453 5.72966 38.5112 5.41759 38.4972C5.10553 38.4831 4.80222 38.3895 4.53647 38.2254C4.27072 38.0612 4.05132 37.8318 3.89911 37.559C3.7469 37.2862 3.66691 36.9791 3.66675 36.6667V14.6667C3.6667 14.3649 3.74114 14.0678 3.88346 13.8017C4.02577 13.5356 4.23157 13.3088 4.48258 13.1413L15.4826 5.808ZM9.16675 22C9.16675 22.4862 9.3599 22.9525 9.70372 23.2964C10.0475 23.6402 10.5139 23.8333 11.0001 23.8333C11.4863 23.8333 11.9526 23.6402 12.2964 23.2964C12.6403 22.9525 12.8334 22.4862 12.8334 22C12.8334 21.5138 12.6403 21.0475 12.2964 20.7036C11.9526 20.3598 11.4863 20.1667 11.0001 20.1667C10.5139 20.1667 10.0475 20.3598 9.70372 20.7036C9.3599 21.0475 9.16675 21.5138 9.16675 22V22.0018V22ZM18.3334 23.8333C17.8472 23.8333 17.3809 23.6402 17.0371 23.2964C16.6932 22.9525 16.5001 22.4862 16.5001 22C16.5001 21.5138 16.6932 21.0475 17.0371 20.7036C17.3809 20.3598 17.8472 20.1667 18.3334 20.1667C18.8196 20.1667 19.286 20.3598 19.6298 20.7036C19.9736 21.0475 20.1667 21.5138 20.1667 22V22.0018C20.1667 22.4881 19.9736 22.9544 19.6298 23.2982C19.286 23.642 18.8196 23.8352 18.3334 23.8352V23.8333ZM26.9629 17.0353C26.7938 16.8602 26.5915 16.7206 26.3678 16.6245C26.1441 16.5284 25.9036 16.4778 25.6602 16.4757C25.4167 16.4736 25.1753 16.52 24.95 16.6122C24.7247 16.7043 24.52 16.8405 24.3479 17.0126C24.1757 17.1847 24.0396 17.3894 23.9474 17.6148C23.8552 17.8401 23.8088 18.0815 23.811 18.3249C23.8131 18.5683 23.8636 18.8089 23.9597 19.0326C24.0558 19.2563 24.1955 19.4585 24.3706 19.6277L26.7411 22L24.3706 24.3705C24.0366 24.7163 23.8518 25.1794 23.856 25.6601C23.8602 26.1408 24.053 26.6006 24.3929 26.9405C24.7328 27.2804 25.1927 27.4732 25.6733 27.4774C26.154 27.4816 26.6171 27.2968 26.9629 26.9628L29.3334 24.5923L31.7039 26.9628C32.0497 27.2968 32.5128 27.4816 32.9935 27.4774C33.4742 27.4732 33.934 27.2804 34.2739 26.9405C34.6138 26.6006 34.8066 26.1408 34.8108 25.6601C34.815 25.1794 34.6302 24.7163 34.2962 24.3705L31.9257 22L34.2962 19.6295C34.6302 19.2837 34.815 18.8206 34.8108 18.3399C34.8066 17.8592 34.6138 17.3994 34.2739 17.0595C33.934 16.7196 33.4742 16.5268 32.9935 16.5226C32.5128 16.5184 32.0497 16.7032 31.7039 17.0372L29.3334 19.4077L26.9629 17.0372V17.0353Z"
        fill="#3D3E48" />
</svg>