<svg width="36" height="38" viewBox="0 0 36 38" fill="none" xmlns="http://www.w3.org/2000/svg">
    <path
        d="M28 34C28 35.0609 27.5786 36.0783 26.8284 36.8284C26.0783 37.5786 25.0609 38 24 38C22.9391 38 21.9217 37.5786 21.1716 36.8284C20.4214 36.0783 20 35.0609 20 34C20 32.9391 20.4214 31.9217 21.1716 31.1716C21.9217 30.4214 22.9391 30 24 30C25.0609 30 26.0783 30.4214 26.8284 31.1716C27.5786 31.9217 28 32.9391 28 34ZM8 34C8 35.0609 7.57857 36.0783 6.82843 36.8284C6.07828 37.5786 5.06087 38 4 38C2.93913 38 1.92172 37.5786 1.17157 36.8284C0.421427 36.0783 0 35.0609 0 34C0 32.9391 0.421427 31.9217 1.17157 31.1716C1.92172 30.4214 2.93913 30 4 30C5.06087 30 6.07828 30.4214 6.82843 31.1716C7.57857 31.9217 8 32.9391 8 34ZM29.22 0C27.9 0 26.88 0.4 26 1C24.64 1.82 23.76 3.18 22.94 4.14L5.42 24.7C4.32 26 5.24 28 6.94 28H22C23.0609 28 24.0783 27.5786 24.8284 26.8284C25.5786 26.0783 26 25.0609 26 24V6.76C27.16 5.4 27.86 4 29.22 4C30.76 4 32 5.32 32 7V8H36V7C36 3.12 33 0 29.22 0ZM11.72 0.18C8.08 0.32 4.46 1.52 1.36 3.8L10.88 13.32L18.64 4.2C19.18 3.56 19.82 2.76 20.6 2C18.3109 0.916858 15.8297 0.298268 13.3 0.18C12.78 0.16 12.24 0.16 11.72 0.18Z"
        fill="#3D3E48" />
</svg>