<svg width="43" height="42" viewBox="0 0 43 42" fill="none" xmlns="http://www.w3.org/2000/svg">
    <path
        d="M21.5595 21.009C20.3205 21.009 19.923 21.7245 20.3085 22.7805C20.4435 23.2485 20.82 24.429 21.1935 25.4355C21.6615 26.6955 22.338 27.018 23.4555 27.018H26.0145C27.2535 27.018 27.429 26.148 27.165 25.4355L26.916 24.7605C26.658 24.0645 26.3355 23.19 26.0685 22.491C25.7025 21.537 24.9915 21.009 23.8755 21.009H21.5595Z"
        fill="#3D3E48" />
    <path
        d="M36.6975 4.25399C36.7125 4.45949 36.8475 4.82699 37.1115 4.91399C37.6963 5.05413 38.2471 5.30977 38.7316 5.66589C39.2161 6.02201 39.6245 6.47142 39.9328 6.98768C40.2411 7.50394 40.4431 8.07663 40.5268 8.67208C40.6106 9.26753 40.5744 9.87372 40.4205 10.455C40.4196 10.4837 40.4124 10.5119 40.3995 10.5375L40.392 10.5585C40.3805 10.5972 40.3685 10.6357 40.356 10.674C40.281 10.9335 40.221 11.289 40.476 11.5545C41.1829 12.147 41.6911 12.9421 41.9319 13.8325C42.1726 14.723 42.1344 15.6658 41.8224 16.5339C41.5104 17.4019 40.9396 18.1533 40.187 18.6867C39.4345 19.22 38.5364 19.5097 37.614 19.5165H36.006V22.5H39C40.65 22.5 42 23.835 42 25.497V37.488C41.996 38.6839 41.519 39.8297 40.673 40.6751C39.8271 41.5205 38.681 41.9968 37.485 42H4.515C3.31831 41.9992 2.17082 41.5237 1.32435 40.6778C0.477881 39.8319 0.00158897 38.6847 0 37.488V25.497C0 23.85 1.335 22.5 3 22.5H8.22C9.1905 20.0445 9.96 18.102 10.071 17.835L10.113 17.7315C10.2345 17.433 10.3905 17.0535 10.6215 16.764C10.7822 16.5588 10.9893 16.3948 11.2259 16.2855C11.4625 16.1762 11.7216 16.1248 11.982 16.1355H22.6425C22.4348 15.326 22.4557 14.4747 22.7027 13.6763C22.9498 12.878 23.4134 12.1637 24.042 11.613C24.192 11.43 24.252 11.1735 24.1605 10.9575C24.1537 10.9421 24.1486 10.926 24.1455 10.9095C23.912 10.2987 23.8141 9.64448 23.8587 8.99212C23.9032 8.33975 24.0891 7.70489 24.4035 7.13153C24.7178 6.55817 25.1531 6.06005 25.6792 5.67169C26.2053 5.28334 26.8095 5.01405 27.45 4.88249C27.618 4.80149 27.6645 4.63349 27.69 4.45349C27.7042 3.28485 28.1717 2.16739 28.9939 1.33685C29.8162 0.506298 30.9289 0.0275956 32.0974 0.00171674C33.2658 -0.0241621 34.3986 0.404806 35.2568 1.19813C36.1151 1.99146 36.6316 3.08712 36.6975 4.25399ZM11.7045 21.405C9.888 26.4225 6.6795 35.0535 6.5475 35.406C6.411 35.7675 6.2175 35.9715 6.1365 36.0285H11.775V21.1935L11.772 21.183L11.706 21.405H11.7045ZM16.5555 32.979C17.3895 34.9995 17.8245 35.979 19.401 36.03H35.697C36.792 36.03 37.269 35.139 36.744 33.801L36.2565 32.577L36.2505 32.5605V32.559C35.6844 31.1434 35.1194 29.7274 34.5555 28.311L34.434 27.999L34.305 27.675L33.711 26.175L33.4395 25.491H33.4485L31.101 19.515H31.0935L30.999 19.272L30.5925 18.219L30.4695 17.907C30.4617 17.8873 30.4547 17.8673 30.4485 17.847L30.42 17.772L30.3675 17.634H17.415L17.4975 17.646H12.555C11.772 17.646 11.475 18.39 11.295 18.8385L11.2695 18.906C11.0925 19.344 11.151 19.5285 11.2695 19.806C11.3625 20.028 11.8905 21.378 12.144 22.026H12.1365C13.5405 25.524 15.927 31.461 16.554 32.979H16.5555ZM34.506 24.0825V19.515H32.712L34.506 24.081V24.0825Z"
        fill="#3D3E48" />
    <path
        d="M9.56406 5.28002C10.0345 4.79789 10.5985 4.41695 11.2214 4.16056C11.8443 3.90417 12.513 3.77774 13.1866 3.78902C15.6316 3.78902 18.5086 5.68802 18.5086 8.84852C18.5086 11.817 16.4806 14.31 13.4986 14.31H7.44756C6.05706 14.31 4.90356 13.95 4.08756 13.23C3.26106 12.4995 2.87256 11.4765 2.87256 10.3485C2.87256 8.12852 4.51806 6.39752 6.53556 6.29102C6.87792 5.83442 7.35134 5.49304 7.8927 5.31241C8.43406 5.13178 9.01762 5.12048 9.56556 5.28002H9.56406ZM13.1866 5.28902C11.4151 5.28902 10.4866 6.37802 10.0561 7.06202C9.79656 7.47452 9.48606 7.87052 9.03006 8.04302C8.56206 8.22302 8.12706 8.10002 7.81506 7.98302C7.73176 7.96186 7.64921 7.93784 7.56756 7.91102C7.29945 7.81914 7.01682 7.77694 6.73356 7.78652C5.50506 7.78652 4.37256 8.83352 4.37256 10.3485C4.37256 11.1225 4.62756 11.706 5.08056 12.1065C5.54406 12.5145 6.30156 12.8115 7.44756 12.8115H13.5001C15.4936 12.8115 17.0101 11.1585 17.0101 8.84852C17.0101 6.72902 15.0346 5.28902 13.1881 5.28902H13.1866Z"
        fill="#3D3E48" />
</svg>