<svg width="50" height="50" viewBox="0 0 50 50" fill="none" xmlns="http://www.w3.org/2000/svg">
    <path
        d="M6.43197 21.55C6.08993 22.2546 5.91246 23.0278 5.91297 23.811L6.10597 35.936L1.90097 44.96C1.74873 45.2408 1.64686 45.5461 1.59997 45.862C1.5458 46.2167 1.56227 46.5786 1.64842 46.9269C1.73458 47.2752 1.88872 47.6031 2.10199 47.8916C2.31526 48.1801 2.58345 48.4237 2.89115 48.6082C3.19885 48.7928 3.53999 48.9147 3.89497 48.967C4.44796 49.0518 5.01365 48.9642 5.51515 48.7163C6.01665 48.4683 6.42963 48.0719 6.69797 47.581L11.324 37.717C11.42 37.488 11.506 37.247 11.541 36.983L11.566 36.611L11.53 29.115L18.639 32.207L19.787 39.533C19.9062 40.0714 20.186 40.5609 20.5893 40.9369C20.9926 41.3129 21.5006 41.5577 22.046 41.639C22.7617 41.7447 23.4903 41.5641 24.0739 41.1364C24.6576 40.7088 25.0492 40.0684 25.164 39.354C25.199 39.101 25.199 38.848 25.175 38.608L23.774 29.764C23.6898 29.3397 23.5071 28.9411 23.2407 28.6003C22.9742 28.2595 22.6314 27.9861 22.24 27.802L15.886 24.99L19.932 17.976L21.939 20.515C22.144 20.743 22.41 20.936 22.711 21.056L30.359 23.281C30.8536 23.389 31.3706 23.3193 31.819 23.0842C32.2674 22.849 32.6186 22.4634 32.811 21.995C32.9175 21.7333 32.9714 21.4532 32.9696 21.1706C32.9678 20.888 32.9104 20.6086 32.8005 20.3483C32.6906 20.088 32.5305 19.8518 32.3293 19.6534C32.1281 19.455 31.8898 19.2982 31.628 19.192L31.519 19.156L24.874 17.207L19.872 11.228C19.1001 10.4047 18.0757 9.86245 16.961 9.687C15.9984 9.54347 15.0149 9.68453 14.1315 10.0928C13.2481 10.5011 12.5033 11.1588 11.989 11.985L6.43197 21.55ZM28.371 38.934L27.888 42.567L14.732 45.754L14.859 48H46.945C47.2142 48.0012 47.4809 47.9492 47.73 47.8471C47.9791 47.745 48.2056 47.5948 48.3965 47.405C48.5874 47.2152 48.7389 46.9896 48.8425 46.7411C48.9461 46.4927 48.9996 46.2262 49 45.957L48.964 2.888L44.568 1.866L42.042 13.189L37.819 14.957L34.074 25.398L37.632 33.387L36.63 36.454L28.371 38.934ZM19.438 9.157C21.697 9.157 23.533 7.329 23.533 5.079C23.532 2.83 21.697 1 19.438 1C17.179 1 15.342 2.83 15.342 5.079C15.341 7.329 17.178 9.157 19.438 9.157ZM11.289 9.795C11.3652 9.66231 11.4145 9.51584 11.4339 9.36402C11.4533 9.21221 11.4425 9.05805 11.4021 8.91044C11.3616 8.76283 11.2924 8.62468 11.1983 8.50395C11.1042 8.38322 10.9872 8.2823 10.854 8.207L8.87197 7.052C8.60095 6.8985 8.2804 6.85787 7.97966 6.9389C7.67892 7.01994 7.42217 7.21612 7.26497 7.485L1.15297 17.989C1.07705 18.1217 1.02806 18.2681 1.00879 18.4198C0.989514 18.5715 1.00034 18.7255 1.04065 18.873C1.08097 19.0205 1.14997 19.1586 1.24371 19.2794C1.33745 19.4002 1.4541 19.5013 1.58697 19.577L3.58097 20.721C3.8485 20.8756 4.16635 20.918 4.46504 20.8389C4.76374 20.7598 5.01898 20.5657 5.17497 20.299L11.289 9.795Z"
        fill="#3D3E48" />
</svg>