<svg width="48" height="64" viewBox="0 0 48 64" fill="none" xmlns="http://www.w3.org/2000/svg">
    <g clip-path="url(#clip0_19_447)">
        <path
            d="M10.1187 59.0288C9.58372 61.1738 10.8862 63.345 13.0287 63.88C13.355 63.9625 13.6812 63.9987 14.0037 63.9987C15.795 63.9987 17.425 62.7863 17.8812 60.97L21.0362 48.3488L14.4387 41.7513L10.1187 59.0288ZM11.98 34.5137L17.125 14.625C17.3987 13.5725 16.7325 12.5063 15.635 12.2425C10.15 10.9275 4.59122 14.1263 3.21997 19.3888L0.0612193 31.655C-0.212531 32.7075 0.453719 33.7738 1.55122 34.0375L9.49622 35.9437C10.595 36.2062 11.7062 35.5662 11.98 34.5137ZM46 20H44C42.895 20 42 20.895 42 22V24H37.6562L31.8087 18.1525C30.4225 16.7638 28.5762 16 26.6137 16C23.2362 16 20.305 18.2875 19.485 21.565L16.12 35.03C15.9526 35.7002 15.9616 36.4023 16.146 37.068C16.3305 37.7337 16.6841 38.3403 17.1725 38.8288L28 49.6562V60C28 62.2088 29.7912 64 32 64C34.2087 64 36 62.2088 36 60V49.6562C36 47.52 35.1675 45.5112 33.6562 44L27.8037 38.1475C27.8225 38.085 27.865 38.0362 27.8812 37.9712L30.3675 28.025L33.1712 30.8288C33.9212 31.5788 34.9387 32.0013 35.9987 32.0013H41.9987V62.0013C41.9987 63.1063 42.8937 64.0013 43.9987 64.0013H45.9987C47.1037 64.0013 47.9987 63.1063 47.9987 62.0013V22C48 20.895 47.105 20 46 20ZM30 12C33.3137 12 36 9.31375 36 6C36 2.68625 33.3137 0 30 0C26.6862 0 24 2.68625 24 6C24 9.31375 26.6862 12 30 12Z"
            fill="#3D3E48" />
    </g>
    <defs>
        <clipPath id="clip0_19_447">
            <rect width="48" height="64" fill="white" />
        </clipPath>
    </defs>
</svg>