<svg width="48" height="48" viewBox="0 0 48 48" fill="none" xmlns="http://www.w3.org/2000/svg">
    <path
        d="M14 24V18M21 24V18M23 18H12M44 4H28V12H44V4ZM44 12V34C44 35.11 43.11 36 42 36H8C5.79 36 4 34.21 4 32V26C4 21.58 7.58 18 12 18H28V12H44ZM9 44C10.0609 44 11.0783 43.5786 11.8284 42.8284C12.5786 42.0783 13 41.0609 13 40C13 38.9391 12.5786 37.9217 11.8284 37.1716C11.0783 36.4214 10.0609 36 9 36C7.93913 36 6.92172 36.4214 6.17157 37.1716C5.42143 37.9217 5 38.9391 5 40C5 41.0609 5.42143 42.0783 6.17157 42.8284C6.92172 43.5786 7.93913 44 9 44V44ZM19.33 44C20.3909 44 21.4083 43.5786 22.1584 42.8284C22.9086 42.0783 23.33 41.0609 23.33 40C23.33 38.9391 22.9086 37.9217 22.1584 37.1716C21.4083 36.4214 20.3909 36 19.33 36C18.2691 36 17.2517 36.4214 16.5016 37.1716C15.7514 37.9217 15.33 38.9391 15.33 40C15.33 41.0609 15.7514 42.0783 16.5016 42.8284C17.2517 43.5786 18.2691 44 19.33 44ZM29.67 44C30.7309 44 31.7483 43.5786 32.4984 42.8284C33.2486 42.0783 33.67 41.0609 33.67 40C33.67 38.9391 33.2486 37.9217 32.4984 37.1716C31.7483 36.4214 30.7309 36 29.67 36C28.6091 36 27.5917 36.4214 26.8416 37.1716C26.0914 37.9217 25.67 38.9391 25.67 40C25.67 41.0609 26.0914 42.0783 26.8416 42.8284C27.5917 43.5786 28.6091 44 29.67 44ZM40 44C41.0609 44 42.0783 43.5786 42.8284 42.8284C43.5786 42.0783 44 41.0609 44 40C44 38.9391 43.5786 37.9217 42.8284 37.1716C42.0783 36.4214 41.0609 36 40 36C38.9391 36 37.9217 36.4214 37.1716 37.1716C36.4214 37.9217 36 38.9391 36 40C36 41.0609 36.4214 42.0783 37.1716 42.8284C37.9217 43.5786 38.9391 44 40 44V44Z"
        stroke="#3D3E48" stroke-width="4" stroke-miterlimit="2" stroke-linecap="round" stroke-linejoin="round" />
</svg>