<svg width="128" height="128" viewBox="0 0 128 128" fill="none" xmlns="http://www.w3.org/2000/svg">
    <path
        d="M106.336 42.6667H112C114.829 42.6667 117.542 43.7905 119.543 45.7909C121.543 47.7913 122.667 50.5044 122.667 53.3333V74.6667C122.667 77.4957 121.543 80.2088 119.543 82.2091C117.542 84.2095 114.829 85.3333 112 85.3333H106.336C105.036 95.6443 100.018 105.126 92.2228 112C84.4281 118.874 74.3928 122.667 64.0002 122.667V112C72.4871 112 80.6264 108.629 86.6276 102.627C92.6288 96.6263 96.0002 88.4869 96.0002 80V48C96.0002 39.5131 92.6288 31.3738 86.6276 25.3726C80.6264 19.3714 72.4871 16 64.0002 16C55.5132 16 47.3739 19.3714 41.3727 25.3726C35.3716 31.3738 32.0002 39.5131 32.0002 48V85.3333H16.0002C13.1712 85.3333 10.4581 84.2095 8.45769 82.2091C6.4573 80.2088 5.3335 77.4957 5.3335 74.6667V53.3333C5.3335 50.5044 6.4573 47.7913 8.45769 45.7909C10.4581 43.7905 13.1712 42.6667 16.0002 42.6667H21.6642C22.9657 32.3568 27.9846 22.8761 35.7792 16.0036C43.5739 9.1311 53.6084 5.33908 64.0002 5.33908C74.3919 5.33908 84.4265 9.1311 92.2211 16.0036C100.016 22.8761 105.035 32.3568 106.336 42.6667ZM16.0002 53.3333V74.6667H21.3335V53.3333H16.0002ZM106.667 53.3333V74.6667H112V53.3333H106.667ZM41.3868 84.1867L47.0402 75.1413C52.1232 78.3255 58.0021 80.0097 64.0002 80C69.9982 80.0097 75.8771 78.3255 80.9602 75.1413L86.6135 84.1867C79.8362 88.4328 71.9977 90.679 64.0002 90.6667C56.0026 90.679 48.1641 88.4328 41.3868 84.1867Z"
        fill="#43B97F" />
</svg>