<svg width="128" height="128" viewBox="0 0 128 128" fill="none" xmlns="http://www.w3.org/2000/svg">
    <path fill-rule="evenodd" clip-rule="evenodd"
        d="M103.111 120.889C107.826 120.889 112.348 119.016 115.682 115.682C119.016 112.348 120.889 107.826 120.889 103.111C120.889 98.3962 119.016 93.8743 115.682 90.5403C112.348 87.2064 107.826 85.3333 103.111 85.3333C98.3961 85.3333 93.8742 87.2064 90.5403 90.5403C87.2063 93.8743 85.3333 98.3962 85.3333 103.111C85.3333 107.826 87.2063 112.348 90.5403 115.682C93.8742 119.016 98.3961 120.889 103.111 120.889ZM103.111 128C109.712 128 116.043 125.378 120.71 120.71C125.378 116.043 128 109.712 128 103.111C128 96.5102 125.378 90.1796 120.71 85.512C116.043 80.8444 109.712 78.2222 103.111 78.2222C96.5101 78.2222 90.1795 80.8444 85.512 85.512C80.8444 90.1796 78.2222 96.5102 78.2222 103.111C78.2222 109.712 80.8444 116.043 85.512 120.71C90.1795 125.378 96.5101 128 103.111 128Z"
        fill="#43B97F" />
    <path fill-rule="evenodd" clip-rule="evenodd"
        d="M103.111 90.6667C104.054 90.6667 104.958 91.0413 105.625 91.7081C106.292 92.3749 106.667 93.2792 106.667 94.2222V101.639L109.18 104.153C109.828 104.823 110.186 105.722 110.178 106.654C110.17 107.586 109.796 108.478 109.137 109.137C108.478 109.796 107.586 110.17 106.654 110.178C105.722 110.186 104.823 109.828 104.153 109.18L99.5555 104.583V94.2222C99.5555 93.2792 99.9301 92.3749 100.597 91.7081C101.264 91.0413 102.168 90.6667 103.111 90.6667ZM28.4444 60.4444H21.3333V67.5555H28.4444V60.4444ZM21.3333 53.3333C19.4473 53.3333 17.6386 54.0825 16.305 55.4161C14.9714 56.7497 14.2222 58.5585 14.2222 60.4444V67.5555C14.2222 69.4415 14.9714 71.2503 16.305 72.5839C17.6386 73.9175 19.4473 74.6667 21.3333 74.6667H28.4444C30.3304 74.6667 32.1391 73.9175 33.4727 72.5839C34.8063 71.2503 35.5555 69.4415 35.5555 67.5555V60.4444C35.5555 58.5585 34.8063 56.7497 33.4727 55.4161C32.1391 54.0825 30.3304 53.3333 28.4444 53.3333H21.3333ZM56.8888 60.4444H49.7777V67.5555H56.8888V60.4444ZM49.7777 53.3333C47.8917 53.3333 46.083 54.0825 44.7494 55.4161C43.4158 56.7497 42.6666 58.5585 42.6666 60.4444V67.5555C42.6666 69.4415 43.4158 71.2503 44.7494 72.5839C46.083 73.9175 47.8917 74.6667 49.7777 74.6667H56.8888C58.7748 74.6667 60.5836 73.9175 61.9171 72.5839C63.2507 71.2503 63.9999 69.4415 63.9999 67.5555V60.4444C63.9999 58.5585 63.2507 56.7497 61.9171 55.4161C60.5836 54.0825 58.7748 53.3333 56.8888 53.3333H49.7777ZM85.3333 60.4444H78.2222V67.5555H85.3333V60.4444ZM78.2222 53.3333C76.3362 53.3333 74.5274 54.0825 73.1939 55.4161C71.8603 56.7497 71.1111 58.5585 71.1111 60.4444V67.5555C71.1111 69.4415 71.8603 71.2503 73.1939 72.5839C74.5274 73.9175 76.3362 74.6667 78.2222 74.6667H85.3333C87.2193 74.6667 89.028 73.9175 90.3616 72.5839C91.6952 71.2503 92.4444 69.4415 92.4444 67.5555V60.4444C92.4444 58.5585 91.6952 56.7497 90.3616 55.4161C89.028 54.0825 87.2193 53.3333 85.3333 53.3333H78.2222ZM28.4444 88.8889H21.3333V96H28.4444V88.8889ZM21.3333 81.7778C19.4473 81.7778 17.6386 82.527 16.305 83.8606C14.9714 85.1942 14.2222 87.0029 14.2222 88.8889V96C14.2222 97.886 14.9714 99.6947 16.305 101.028C17.6386 102.362 19.4473 103.111 21.3333 103.111H28.4444C30.3304 103.111 32.1391 102.362 33.4727 101.028C34.8063 99.6947 35.5555 97.886 35.5555 96V88.8889C35.5555 87.0029 34.8063 85.1942 33.4727 83.8606C32.1391 82.527 30.3304 81.7778 28.4444 81.7778H21.3333ZM56.8888 88.8889H49.7777V96H56.8888V88.8889ZM49.7777 81.7778C47.8917 81.7778 46.083 82.527 44.7494 83.8606C43.4158 85.1942 42.6666 87.0029 42.6666 88.8889V96C42.6666 97.886 43.4158 99.6947 44.7494 101.028C46.083 102.362 47.8917 103.111 49.7777 103.111H56.8888C58.7748 103.111 60.5836 102.362 61.9171 101.028C63.2507 99.6947 63.9999 97.886 63.9999 96V88.8889C63.9999 87.0029 63.2507 85.1942 61.9171 83.8606C60.5836 82.527 58.7748 81.7778 56.8888 81.7778H49.7777Z"
        fill="#43B97F" />
    <path fill-rule="evenodd" clip-rule="evenodd"
        d="M7.11111 21.3333C7.11111 20.3903 7.48571 19.486 8.15251 18.8192C8.81931 18.1524 9.72367 17.7778 10.6667 17.7778H28.4444V10.6667H10.6667C7.83769 10.6667 5.12458 11.7905 3.12419 13.7909C1.12381 15.7913 0 18.5044 0 21.3333V106.667C0 109.496 1.12381 112.209 3.12419 114.209C5.12458 116.21 7.83769 117.333 10.6667 117.333H82.6844C81.1682 115.161 80.0098 112.761 79.2533 110.222H10.6667C9.72367 110.222 8.81931 109.848 8.15251 109.181C7.48571 108.514 7.11111 107.61 7.11111 106.667V21.3333ZM99.5556 78.4711C101.914 78.1338 104.308 78.1338 106.667 78.4711V21.3333C106.667 18.5044 105.543 15.7913 103.542 13.7909C101.542 11.7905 98.829 10.6667 96 10.6667H85.3333V17.7778H96C96.943 17.7778 97.8474 18.1524 98.5142 18.8192C99.181 19.486 99.5556 20.3903 99.5556 21.3333V78.4711ZM35.5556 17.7778H73.1129V10.6667H35.5556V17.7778Z"
        fill="#43B97F" />
    <path fill-rule="evenodd" clip-rule="evenodd" d="M106.667 42.6667H7.11133V35.5556H106.667V42.6667Z"
        fill="#43B97F" />
    <path
        d="M21.3335 3.55556C21.3335 2.61256 21.7081 1.70819 22.3749 1.0414C23.0417 0.374603 23.9461 0 24.8891 0C25.832 0 26.7364 0.374603 27.4032 1.0414C28.07 1.70819 28.4446 2.61256 28.4446 3.55556V21.3333C28.4446 22.2763 28.07 23.1807 27.4032 23.8475C26.7364 24.5143 25.832 24.8889 24.8891 24.8889C23.9461 24.8889 23.0417 24.5143 22.3749 23.8475C21.7081 23.1807 21.3335 22.2763 21.3335 21.3333V3.55556ZM71.1113 3.55556C71.1113 2.61256 71.4859 1.70819 72.1527 1.0414C72.8195 0.374603 73.7238 0 74.6668 0C75.6098 0 76.5142 0.374603 77.181 1.0414C77.8478 1.70819 78.2224 2.61256 78.2224 3.55556V21.3333C78.2224 22.2763 77.8478 23.1807 77.181 23.8475C76.5142 24.5143 75.6098 24.8889 74.6668 24.8889C73.7238 24.8889 72.8195 24.5143 72.1527 23.8475C71.4859 23.1807 71.1113 22.2763 71.1113 21.3333V3.55556Z"
        fill="#43B97F" />
</svg>