<svg width="112" height="128" viewBox="0 0 112 128" fill="none" xmlns="http://www.w3.org/2000/svg">
    <path
        d="M34.704 12.72C27.0848 14.8199 19.5172 17.1032 12.008 19.568C11.3224 19.7901 10.7128 20.2003 10.2489 20.752C9.785 21.3036 9.48533 21.9744 9.38404 22.688C4.95204 55.944 15.192 80.208 27.408 96.192C32.5802 103.027 38.7473 109.049 45.704 114.056C48.472 116.008 50.92 117.416 52.848 118.32C53.808 118.776 54.592 119.08 55.192 119.264C55.4545 119.356 55.725 119.423 56 119.464C56.2718 119.42 56.5394 119.353 56.8 119.264C57.408 119.08 58.192 118.776 59.152 118.32C61.072 117.416 63.528 116 66.296 114.056C73.2527 109.049 79.4198 103.027 84.592 96.192C96.808 80.216 107.048 55.944 102.616 22.688C102.516 21.9741 102.216 21.3028 101.752 20.751C101.288 20.1993 100.678 19.7893 99.992 19.568C94.784 17.864 85.992 15.088 77.296 12.728C68.416 10.32 60.248 8.536 56 8.536C51.76 8.536 43.584 10.32 34.704 12.728V12.72ZM32.576 4.48C41.256 2.12 50.48 0 56 0C61.52 0 70.744 2.12 79.424 4.48C88.304 6.88 97.256 9.72 102.52 11.44C104.721 12.1668 106.672 13.4997 108.15 15.2856C109.627 17.0715 110.571 19.2379 110.872 21.536C115.64 57.352 104.576 83.896 91.152 101.456C85.4596 108.968 78.672 115.583 71.016 121.08C68.3688 122.982 65.5639 124.655 62.632 126.08C60.392 127.136 57.984 128 56 128C54.016 128 51.616 127.136 49.368 126.08C46.4362 124.655 43.6313 122.982 40.984 121.08C33.3283 115.583 26.5407 108.968 20.848 101.456C7.42404 83.896 -3.63996 57.352 1.12804 21.536C1.42954 19.2379 2.37319 17.0715 3.85058 15.2856C5.32797 13.4997 7.27917 12.1668 9.48004 11.44C17.1216 8.93447 24.8225 6.6138 32.576 4.48Z"
        fill="#43B97F" />
    <path
        d="M78.8322 41.168C79.2047 41.5396 79.5002 41.981 79.7019 42.4669C79.9035 42.9529 80.0073 43.4739 80.0073 44C80.0073 44.5261 79.9035 45.0471 79.7019 45.5331C79.5002 46.019 79.2047 46.4604 78.8322 46.832L54.8322 70.832C54.4606 71.2045 54.0192 71.5001 53.5332 71.7017C53.0473 71.9034 52.5263 72.0072 52.0002 72.0072C51.474 72.0072 50.9531 71.9034 50.4671 71.7017C49.9811 71.5001 49.5397 71.2045 49.1682 70.832L37.1682 58.832C36.7963 58.4601 36.5013 58.0186 36.3 57.5327C36.0987 57.0468 35.9951 56.526 35.9951 56C35.9951 55.4741 36.0987 54.9533 36.3 54.4673C36.5013 53.9814 36.7963 53.5399 37.1682 53.168C37.5401 52.7961 37.9816 52.5011 38.4675 52.2998C38.9534 52.0985 39.4742 51.995 40.0002 51.995C40.5261 51.995 41.0469 52.0985 41.5328 52.2998C42.0188 52.5011 42.4603 52.7961 42.8322 53.168L52.0002 62.344L73.1682 41.168C73.5397 40.7955 73.9811 40.5 74.4671 40.2983C74.9531 40.0967 75.474 39.9929 76.0002 39.9929C76.5263 39.9929 77.0473 40.0967 77.5332 40.2983C78.0192 40.5 78.4606 40.7955 78.8322 41.168Z"
        fill="#43B97F" />
</svg>