<svg width="128" height="128" viewBox="0 0 128 128" fill="none" xmlns="http://www.w3.org/2000/svg">
    <path fill-rule="evenodd" clip-rule="evenodd"
        d="M21.3335 114.667C21.3335 113.959 21.6144 113.281 22.1145 112.781C22.6146 112.281 23.2929 112 24.0002 112H104C104.707 112 105.386 112.281 105.886 112.781C106.386 113.281 106.667 113.959 106.667 114.667C106.667 115.374 106.386 116.052 105.886 116.552C105.386 117.052 104.707 117.333 104 117.333H24.0002C23.2929 117.333 22.6146 117.052 22.1145 116.552C21.6144 116.052 21.3335 115.374 21.3335 114.667Z"
        fill="#A8A7AB" />
    <path fill-rule="evenodd" clip-rule="evenodd"
        d="M32.0003 58.6666V112H45.3337V58.6666H32.0003ZM29.3337 53.3333C28.6264 53.3333 27.9481 53.6142 27.448 54.1143C26.9479 54.6144 26.667 55.2927 26.667 55.9999V114.667C26.667 115.374 26.9479 116.052 27.448 116.552C27.9481 117.052 28.6264 117.333 29.3337 117.333H48.0003C48.7076 117.333 49.3858 117.052 49.8859 116.552C50.386 116.052 50.667 115.374 50.667 114.667V55.9999C50.667 55.2927 50.386 54.6144 49.8859 54.1143C49.3858 53.6142 48.7076 53.3333 48.0003 53.3333H29.3337Z"
        fill="#A8A7AB" />
    <path fill-rule="evenodd" clip-rule="evenodd"
        d="M45.3335 10.6666L88.0002 26.6666V64H82.6668V30.3626L50.6668 18.3626V112H72.0002C72.0002 112.707 72.2811 113.385 72.7812 113.886C73.2813 114.386 73.9596 114.667 74.6668 114.667H88.0002V117.333H45.3335V10.6666Z"
        fill="#A8A7AB" />
    <path
        d="M53.3335 34.6666H58.6668V40H53.3335V34.6666ZM64.0002 34.6666H69.3335V40H64.0002V34.6666ZM74.6668 34.6666H80.0002V40H74.6668V34.6666ZM53.3335 45.3333H58.6668V50.6666H53.3335V45.3333ZM64.0002 45.3333H69.3335V50.6666H64.0002V45.3333ZM74.6668 45.3333H80.0002V50.6666H74.6668V45.3333ZM53.3335 56H58.6668V61.3333H53.3335V56ZM64.0002 56H69.3335V61.3333H64.0002V56ZM74.6668 56H80.0002V61.3333H74.6668V56ZM53.3335 66.6666H58.6668V72H53.3335V66.6666ZM64.0002 66.6666H69.3335V72H64.0002V66.6666ZM53.3335 77.3333H58.6668V82.6666H53.3335V77.3333ZM64.0002 77.3333H69.3335V82.6666H64.0002V77.3333ZM53.3335 88H58.6668V93.3333H53.3335V88ZM64.0002 88H69.3335V93.3333H64.0002V88ZM53.3335 98.6666H58.6668V104H53.3335V98.6666ZM64.0002 98.6666H69.3335V104H64.0002V98.6666Z"
        fill="#A8A7AB" />
    <path fill-rule="evenodd" clip-rule="evenodd"
        d="M77.3333 69.3333V112H96V69.3333H77.3333ZM74.6667 64C73.9594 64 73.2811 64.2809 72.781 64.781C72.2809 65.2811 72 65.9594 72 66.6667V114.667C72 115.374 72.2809 116.052 72.781 116.552C73.2811 117.052 73.9594 117.333 74.6667 117.333H98.6667C99.3739 117.333 100.052 117.052 100.552 116.552C101.052 116.052 101.333 115.374 101.333 114.667V66.6667C101.333 65.9594 101.052 65.2811 100.552 64.781C100.052 64.2809 99.3739 64 98.6667 64H74.6667Z"
        fill="#A8A7AB" />
    <path fill-rule="evenodd" clip-rule="evenodd"
        d="M90.667 80H82.667V74.6666H90.667V80ZM90.667 90.6666H82.667V85.3333H90.667V90.6666ZM90.667 101.333H82.667V96H90.667V101.333ZM90.667 112H82.667V106.667H90.667V112ZM40.0003 34.6666V58.6666H34.667V34.6666H40.0003Z"
        fill="#A8A7AB" />
</svg>