<svg width="128" height="130" viewBox="0 0 128 130" fill="none" xmlns="http://www.w3.org/2000/svg">
    <g clip-path="url(#clip0_30_482)">
        <path
            d="M7.31927 26.845L6.38836 33.1392L12.9629 31.4275L15.5287 37.3208L20.2996 32.7817L25.6873 36.6817L27.3862 30.5337L34.1469 31.4004L32.3084 25.2796L38.6385 22.8962L33.7629 18.4546L37.952 13.4387L31.3484 11.8571L32.2793 5.56291L25.7047 7.27458L23.1389 1.38124L18.3389 5.92041L12.9513 2.02041L11.2524 8.16833L4.49164 7.30166L6.33018 13.4225L0 15.8112L4.87564 20.2529L0.686545 25.2687L7.31927 26.845ZM15.6335 9.37083C17.7493 8.69957 20.0312 8.62641 22.1916 9.16056C24.352 9.69471 26.2943 10.8123 27.7736 12.3724C29.2529 13.9325 30.2031 15.8654 30.5044 17.9274C30.8057 19.9895 30.4446 22.0884 29.4667 23.9598C28.4888 25.8311 26.9377 27.391 25.0091 28.443C23.0804 29.4951 20.8605 29.992 18.6289 29.8713C16.3974 29.7507 14.2541 29.0177 12.4693 27.7649C10.6845 26.5121 9.33788 24.7954 8.59927 22.8312L8.576 22.7554C7.61161 20.1232 7.80367 17.2428 9.11034 14.7418C10.417 12.2409 12.7324 10.322 15.552 9.40333L15.6335 9.38166V9.37083ZM27.2931 111.486C27.6006 111.486 27.9051 111.429 28.1888 111.318C28.4724 111.207 28.7296 111.045 28.9455 110.841L30.3767 109.465C32.9018 107.044 36.4276 105.544 40.3316 105.544C44.2356 105.544 47.7615 107.044 50.2865 109.465L50.2924 109.471L51.7585 110.868C51.9744 111.072 52.2316 111.234 52.5153 111.345C52.7989 111.456 53.1034 111.513 53.4109 111.513H53.4167C54.0567 111.513 54.6385 111.264 55.0458 110.868L56.5935 109.406C57.8854 108.18 59.4273 107.206 61.1287 106.542C62.8301 105.878 64.6569 105.537 66.5018 105.538C70.4175 105.538 73.9607 107.05 76.4858 109.476L76.4916 109.482L77.888 110.814C78.1016 111.021 78.3575 111.186 78.6407 111.299C78.9239 111.412 79.2286 111.471 79.5367 111.472C79.8448 111.474 80.1501 111.418 80.4346 111.308C80.719 111.197 80.9768 111.035 81.1927 110.83L82.6124 109.465C85.1375 107.044 88.6633 105.544 92.5673 105.544C96.4713 105.544 99.9971 107.044 102.522 109.465L102.528 109.471L103.983 110.847C104.195 111.057 104.451 111.224 104.735 111.338C105.019 111.452 105.325 111.511 105.635 111.511C105.944 111.511 106.251 111.452 106.535 111.338C106.819 111.224 107.075 111.057 107.287 110.847L108.719 109.471C109.661 108.582 110.732 107.819 111.907 107.207L111.977 107.174C104.696 100.942 96.1804 96.0901 86.9062 92.8904L86.3767 92.7333C82.4553 77.155 85.9113 56.6908 91.2989 41.2154C91.4211 41.0962 91.5316 40.9879 91.6364 40.8687C95.9703 41.8508 99.8251 44.1582 102.584 47.4216C105.342 50.685 106.845 54.7157 106.851 58.8683C106.851 63.5158 105.012 67.7625 101.975 71.0125L101.999 70.9908L102.423 70.9962C107.698 70.9962 112.756 69.0456 116.485 65.5736C120.215 62.1015 122.31 57.3923 122.31 52.4821C122.31 47.5718 120.215 42.8627 116.485 39.3906C112.756 35.9185 107.698 33.9679 102.423 33.9679L101.777 33.9787H101.807C103.325 33.5725 105.082 33.2908 106.897 33.1933H106.961C110.772 32.9077 114.596 33.5732 118.038 35.1213C121.48 36.6695 124.417 39.0442 126.545 42.0008L126.592 42.0712C127.792 39.7697 128.338 37.2206 128.18 34.6667V34.7046C127.513 29.8458 124.81 25.4296 120.659 22.419C116.509 19.4084 111.248 18.0476 106.025 18.6333L106.118 18.6225C104.813 18.6822 103.516 18.849 102.243 19.1208L102.394 19.0937L102.4 18.6279C102.4 17.3062 102.26 16.0171 101.999 14.7712L102.022 14.8958C101.416 10.4796 98.9574 6.46608 95.1833 3.73191C91.4092 0.99774 86.6263 -0.234866 81.8793 0.303328L81.9666 0.297911C79.4065 0.774578 77.1549 1.79833 75.2873 3.23374L75.3105 3.21749C78.034 4.10703 80.5061 5.55876 82.5414 7.46395C84.5767 9.36914 86.1226 11.6784 87.0633 14.2187L87.104 14.3433C85.4507 13.0734 83.6447 11.9864 81.7222 11.1042L81.5593 11.0337C69.7658 5.70374 56.3375 8.77499 51.5665 17.9183C50.2649 20.4059 49.6948 23.1701 49.9142 25.9296L49.9084 25.8808C53.7671 23.6476 58.223 22.4706 62.7665 22.4846C66.944 22.4846 70.8829 23.4596 74.3215 25.1767L74.1876 25.1171C75.9656 25.9254 77.6484 26.9039 79.2087 28.0367L79.1447 27.9933C74.5417 26.2504 69.4362 26.0285 64.6787 27.3644C59.9212 28.7003 55.799 31.5135 52.9988 35.3353C50.1986 39.157 48.8894 43.7567 49.2894 48.3679C49.6894 52.9791 51.7744 57.3236 55.1971 60.6775L55.1855 60.6667C57.3324 62.7683 59.9564 64.4367 62.8946 65.5146L63.04 65.5633C61.8924 62.3426 61.6333 58.905 62.2867 55.5667C62.9401 52.2284 64.4848 49.0967 66.7788 46.4598C69.0729 43.823 72.0424 41.7656 75.4143 40.4772C78.7861 39.1887 82.4518 38.7106 86.0742 39.0867L85.9753 39.0758C74.1178 60.2117 67.0022 76.7 65.8153 89.4021H65.5244C59.7059 89.4078 53.9168 90.1718 48.3258 91.6717L48.768 91.5687C42.1788 85.2392 37.2349 77.5883 34.3156 69.2033L34.1935 68.7971C34.1935 68.7104 34.1935 68.6237 34.2284 68.5533C35.9067 67.8912 37.74 67.6432 39.5513 67.8332C41.3627 68.0232 43.0907 68.6448 44.5687 69.638C46.0467 70.6312 47.2246 71.9624 47.9888 73.5031C48.7529 75.0437 49.0774 76.7418 48.9309 78.4333V78.4008C50.0724 77.633 51.0381 76.6611 51.7717 75.5419C52.5052 74.4226 52.9919 73.1786 53.2032 71.8823C53.4146 70.5861 53.3464 69.2636 53.0026 67.9922C52.6588 66.7207 52.0464 65.5258 51.201 64.4772C50.3557 63.4285 49.2944 62.5472 48.0791 61.8847C46.8638 61.2222 45.5189 60.7918 44.123 60.6186C42.727 60.4454 41.308 60.5329 39.9488 60.8759C38.5896 61.219 37.3174 61.8108 36.2065 62.6167L36.2298 62.6004C36.7964 61.9272 37.4358 61.31 38.1382 60.7587L38.1615 60.7425C40.2474 59.0405 42.9281 58.1046 45.7018 58.11C47.0982 58.11 48.4422 58.3429 49.6815 58.7708L49.6 58.7492C49.3227 57.4068 48.6864 56.1511 47.7498 55.0983L47.7615 55.1092C46.7734 54.1452 45.5852 53.3782 44.2689 52.8549C42.9527 52.3316 41.536 52.0629 40.1047 52.065C37.2887 52.065 34.7287 53.0887 32.832 54.7571L32.8378 54.7517C32.32 55.1579 31.8487 55.5858 31.4182 56.0408L31.4065 56.0517C30.9363 55.449 30.4065 54.8886 29.824 54.3779L29.8182 54.3725C28.9197 53.4973 27.8397 52.8011 26.6435 52.3262C25.4473 51.8514 24.16 51.6077 22.8596 51.61C20.4046 51.6065 18.0415 52.4788 16.256 54.0475L16.2618 54.0421C15.3891 54.925 14.7433 56.0083 14.4116 57.2108L14.4 57.2596C15.888 56.8258 17.4637 56.7194 19.0034 56.9487C20.543 57.1781 22.0044 57.7369 23.2727 58.5812L23.2436 58.5596C22.0387 58.5091 20.8316 58.5927 19.648 58.8087L19.7411 58.7925C16.6706 59.0885 13.8487 60.4979 11.8857 62.7157C9.92258 64.9336 8.9761 67.7817 9.25091 70.6442L9.24509 70.6008C9.55927 72.1067 10.2633 73.4283 11.264 74.5117L11.2524 74.5008C12.9804 70.5467 16.7564 67.6758 21.3236 67.0096L21.3993 66.9987C22.4276 66.8095 23.476 66.7313 24.5236 66.7658H24.5004C21.533 67.5078 19.0038 69.3169 17.4692 71.795C15.9345 74.273 15.5201 77.2172 16.3171 79.9798C17.1141 82.7423 19.0572 85.097 21.719 86.5257C24.3808 87.9545 27.5432 88.3403 30.5105 87.5983L30.4291 87.6146C28.622 86.4292 27.2159 84.7883 26.3759 82.8846C25.536 80.9809 25.2971 78.8936 25.6873 76.8679L25.6756 76.9329C25.9608 75.4028 26.5996 73.9487 27.548 72.6711C28.4963 71.3935 29.7315 70.3231 31.168 69.5337L31.2204 69.5067C32.3147 78.5533 34.8951 87.3898 38.8713 95.7071L38.6269 95.1383C31.5179 98.2674 24.9473 102.362 19.1302 107.288L19.1942 107.234C21.6902 108.025 23.8138 109.297 25.536 110.939L25.5418 110.944C26.0361 111.302 26.6439 111.496 27.2698 111.497L27.2931 111.486Z"
            fill="#A8A7AB" />
        <path
            d="M6.99364 117.054C7.31537 117.053 7.63363 116.992 7.93016 116.876C8.2267 116.76 8.49567 116.59 8.72164 116.377C9.43927 115.688 10.2981 115.14 11.2474 114.766C12.1966 114.392 13.2168 114.199 14.2477 114.198C15.2785 114.198 16.299 114.39 17.2486 114.763C18.1983 115.136 19.0578 115.683 19.7762 116.372C21.6904 118.197 24.3551 119.329 27.3107 119.329C30.2664 119.329 32.9311 118.197 34.8395 116.372L36.2707 115.007C36.8013 114.496 37.4369 114.09 38.1396 113.812C38.8422 113.535 39.5977 113.392 40.3609 113.392C41.1241 113.392 41.8796 113.535 42.5823 113.812C43.2849 114.09 43.9205 114.496 44.4511 115.007L45.9173 116.404C47.8256 118.235 50.4904 119.367 53.446 119.367C56.3784 119.367 59.0373 118.246 60.9398 116.437L62.4991 114.974C63.03 114.467 63.6649 114.065 64.3661 113.791C65.0673 113.517 65.8205 113.377 66.5809 113.38C67.3413 113.382 68.0934 113.527 68.7925 113.806C69.4916 114.084 70.1234 114.491 70.6504 115.001L72.0467 116.334C73.9435 118.175 76.614 119.324 79.5696 119.324H79.5871C82.5427 119.324 85.2075 118.181 87.11 116.35L87.1158 116.345L88.5355 114.99C89.0669 114.481 89.7027 114.076 90.4053 113.8C91.1078 113.523 91.8629 113.381 92.6256 113.381C93.3884 113.381 94.1434 113.523 94.846 113.8C95.5486 114.076 96.1844 114.481 96.7158 114.99L98.1471 116.355C100.055 118.181 102.72 119.313 105.67 119.313C108.62 119.313 111.285 118.181 113.193 116.355L114.63 114.974C115.161 114.463 115.796 114.057 116.499 113.78C117.202 113.503 117.957 113.36 118.72 113.36C119.483 113.36 120.239 113.503 120.942 113.78C121.644 114.057 122.28 114.463 122.81 114.974C123.033 115.19 123.3 115.363 123.596 115.48C123.892 115.598 124.211 115.658 124.533 115.658C124.854 115.658 125.173 115.598 125.469 115.48C125.765 115.363 126.032 115.19 126.255 114.974C126.713 114.53 126.97 113.938 126.97 113.322C126.97 112.706 126.713 112.114 126.255 111.67C125.277 110.731 124.106 109.985 122.813 109.475C121.519 108.965 120.129 108.702 118.724 108.701C117.32 108.701 115.929 108.963 114.635 109.472C113.341 109.981 112.17 110.727 111.191 111.665L109.76 113.04C109.23 113.551 108.594 113.957 107.891 114.235C107.189 114.512 106.433 114.655 105.67 114.655C104.907 114.655 104.151 114.512 103.449 114.235C102.746 113.957 102.11 113.551 101.58 113.04L100.149 111.665C99.1706 110.726 98.0002 109.979 96.7067 109.469C95.4131 108.96 94.0228 108.697 92.6181 108.696C91.2134 108.696 89.8229 108.958 88.529 109.467C87.235 109.976 86.064 110.721 85.0853 111.659L83.6656 113.013C83.133 113.522 82.4963 113.925 81.7931 114.201C81.0899 114.476 80.3345 114.617 79.5718 114.615C78.809 114.614 78.0543 114.47 77.3524 114.192C76.6504 113.914 76.0155 113.508 75.4853 112.997L74.0889 111.665C73.1182 110.722 71.9537 109.97 70.6646 109.455C69.3755 108.94 67.9882 108.672 66.5854 108.666C65.1826 108.661 63.7929 108.918 62.4992 109.423C61.2054 109.928 60.034 110.67 59.0547 111.605L57.5071 113.068C56.9746 113.572 56.3392 113.972 55.6382 114.244C54.9372 114.516 54.1848 114.655 53.4253 114.652C52.6658 114.65 51.9146 114.506 51.2157 114.229C50.5168 113.952 49.8845 113.548 49.3558 113.04L47.8896 111.643C45.9755 109.818 43.3107 108.685 40.3551 108.685C37.3995 108.685 34.7347 109.818 32.8264 111.643L31.3951 113.008C30.8659 113.517 30.2321 113.922 29.5315 114.198C28.8308 114.475 28.0775 114.617 27.3166 114.617H27.2875C26.5304 114.617 25.781 114.475 25.0842 114.2C24.3874 113.924 23.7575 113.521 23.2322 113.013C20.9573 110.83 17.7805 109.476 14.2605 109.476C10.7405 109.476 7.56382 110.83 5.29473 113.008L5.28891 113.013C4.82969 113.457 4.57363 114.05 4.57471 114.667C4.5758 115.283 4.83395 115.875 5.29473 116.318C5.51114 116.542 5.7756 116.722 6.07117 116.847C6.36674 116.971 6.68689 117.036 7.0111 117.038L6.99364 117.054Z"
            fill="#A8A7AB" />
        <path
            d="M126.231 122.33C125.253 121.391 124.083 120.645 122.789 120.135C121.496 119.625 120.105 119.362 118.701 119.361C117.296 119.361 115.906 119.623 114.612 120.132C113.318 120.641 112.147 121.387 111.168 122.325L109.737 123.7C109.205 124.21 108.569 124.615 107.867 124.891C107.164 125.168 106.409 125.31 105.646 125.31C104.884 125.31 104.129 125.168 103.426 124.891C102.723 124.615 102.088 124.21 101.556 123.7L100.119 122.319C99.1412 121.38 97.9707 120.634 96.6772 120.124C95.3837 119.614 93.9934 119.351 92.5887 119.351C91.184 119.35 89.7935 119.612 88.4996 120.121C87.2056 120.63 86.0346 121.376 85.0559 122.314L83.6362 123.668C83.1036 124.176 82.4669 124.58 81.7637 124.855C81.0605 125.13 80.3051 125.271 79.5423 125.27C78.7796 125.268 78.0249 125.124 77.3229 124.846C76.621 124.568 75.9861 124.162 75.4558 123.652L74.0595 122.319C73.0888 121.376 71.9242 120.625 70.6351 120.11C69.346 119.595 67.9588 119.326 66.556 119.321C65.1532 119.315 63.7635 119.573 62.4697 120.078C61.176 120.582 60.0046 121.324 59.0253 122.26L57.4777 123.722C56.9452 124.226 56.3097 124.626 55.6087 124.898C54.9078 125.171 54.1554 125.309 53.3959 125.307C52.6364 125.304 51.8851 125.161 51.1863 124.884C50.4874 124.607 49.855 124.203 49.3264 123.695L47.8602 122.297C46.8823 121.359 45.7118 120.612 44.4183 120.102C43.1248 119.592 41.7345 119.329 40.3298 119.329C38.9251 119.328 37.5346 119.59 36.2407 120.099C34.9467 120.608 33.7757 121.354 32.7969 122.292L31.3657 123.668C30.8351 124.179 30.1995 124.585 29.4968 124.862C28.7942 125.14 28.0387 125.283 27.2755 125.283C26.5123 125.283 25.7568 125.14 25.0541 124.862C24.3515 124.585 23.7159 124.179 23.1853 123.668C20.9104 121.485 17.7337 120.131 14.2137 120.131C10.6937 120.131 7.51695 121.485 5.24786 123.663L5.24204 123.668C4.78281 124.112 4.52675 124.705 4.52784 125.321C4.52892 125.938 4.78707 126.529 5.24786 126.972C5.46988 127.191 5.73732 127.365 6.03393 127.485C6.33055 127.604 6.65016 127.666 6.97336 127.667C7.29656 127.668 7.61661 127.608 7.91409 127.491C8.21156 127.373 8.48026 127.2 8.70386 126.983C9.42149 126.294 10.2804 125.746 11.2296 125.372C12.1788 124.997 13.199 124.804 14.2299 124.804C15.2607 124.803 16.2812 124.995 17.2309 125.369C18.1805 125.742 19.04 126.289 19.7584 126.978C21.6726 128.803 24.3373 129.935 27.2929 129.935C30.2486 129.935 32.9133 128.803 34.8217 126.978L36.2529 125.613C36.7844 125.103 37.4202 124.698 38.1228 124.422C38.8253 124.145 39.5804 124.003 40.3431 124.003C41.1059 124.003 41.8609 124.145 42.5635 124.422C43.266 124.698 43.9019 125.103 44.4333 125.613L45.8995 127.01C46.8732 127.947 48.039 128.693 49.328 129.204C50.6169 129.714 52.0027 129.979 53.4034 129.982C54.8041 129.985 56.1912 129.726 57.4827 129.222C58.7741 128.717 59.9436 127.976 60.922 127.043L62.4813 125.58C63.0122 125.073 63.6471 124.671 64.3483 124.397C65.0495 124.123 65.8027 123.983 66.5631 123.986C67.3235 123.988 68.0756 124.133 68.7747 124.412C69.4738 124.69 70.1056 125.097 70.6326 125.607L72.0289 126.94C73.9257 128.781 76.5962 129.93 79.5519 129.93H79.5693C82.5191 129.93 85.1839 128.792 87.0864 126.961V126.956L88.506 125.602C89.0366 125.091 89.6722 124.685 90.3749 124.407C91.0775 124.13 91.833 123.987 92.5962 123.987C93.3595 123.987 94.1149 124.13 94.8176 124.407C95.5202 124.685 96.1558 125.091 96.6864 125.602L98.1177 126.967C100.026 128.792 102.691 129.924 105.641 129.924C108.59 129.924 111.255 128.792 113.163 126.967L114.595 125.602C115.125 125.091 115.761 124.685 116.464 124.407C117.166 124.13 117.922 123.987 118.685 123.987C119.448 123.987 120.204 124.13 120.906 124.407C121.609 124.685 122.245 125.091 122.775 125.602C122.998 125.818 123.265 125.99 123.561 126.108C123.857 126.225 124.176 126.286 124.497 126.286C124.819 126.286 125.138 126.225 125.434 126.108C125.729 125.99 125.997 125.818 126.219 125.602C126.689 125.164 126.954 124.571 126.956 123.952C126.959 123.333 126.698 122.738 126.231 122.297V122.33Z"
            fill="#A8A7AB" />
    </g>
    <defs>
        <clipPath id="clip0_30_482">
            <rect width="128" height="130" fill="white" />
        </clipPath>
    </defs>
</svg>