<svg width="128" height="128" viewBox="0 0 128 128" fill="none" xmlns="http://www.w3.org/2000/svg">
    <path
        d="M51.5101 69.9281H46.1441C46.0262 69.9286 45.9095 69.9523 45.8008 69.9979C45.692 70.0436 45.5933 70.1101 45.5103 70.1939C45.4273 70.2777 45.3616 70.3769 45.3169 70.4861C45.2723 70.5953 45.2496 70.7121 45.2501 70.8301V72.6321C45.2501 73.1281 45.6501 73.5281 46.1441 73.5281H51.5101C52.0001 73.5281 52.4041 73.1281 52.4041 72.6321V70.8301C52.4046 70.5921 52.3109 70.3635 52.1433 70.1945C51.9758 70.0254 51.7481 69.9296 51.5101 69.9281ZM62.2401 69.9281H56.8741C56.7562 69.9286 56.6395 69.9523 56.5308 69.9979C56.422 70.0436 56.3233 70.1101 56.2403 70.1939C56.1573 70.2777 56.0916 70.3769 56.0469 70.4861C56.0023 70.5953 55.9796 70.7121 55.9801 70.8301V72.6321C55.9801 73.1281 56.3801 73.5281 56.8741 73.5281H62.2401C62.7301 73.5281 63.1341 73.1281 63.1341 72.6321V70.8301C63.1346 70.5921 63.0409 70.3635 62.8733 70.1945C62.7058 70.0254 62.4781 69.9296 62.2401 69.9281ZM40.0001 58.0801H42.6541V63.5241H40.0001V58.0801ZM46.7321 58.0801H49.3841V63.5241H46.7321V58.0801ZM53.4581 58.0801H56.1141V63.5241H53.4581V58.0801ZM60.1901 58.0801H62.8421V63.5241H60.1901V58.0801ZM66.9161 58.0801H69.5721V63.5241H66.9161V58.0801ZM73.6501 58.0801H76.3021V63.5241H73.6501V58.0801ZM80.3761 58.0801H83.0301V63.5241H80.3761V58.0801ZM87.1061 58.0801H89.7601V63.5241H87.1061V58.0801ZM27.2081 26.1461C26.5693 25.6126 25.979 25.0237 25.4441 24.3861L24.7481 23.5241L23.6641 23.7041C21.8061 24.0181 20.0281 24.0041 18.2641 23.4621C17.3387 23.1744 16.4546 22.7677 15.6341 22.2521C14.7481 21.7281 13.9221 21.0581 13.0581 20.2841C13.1701 21.4661 13.6761 22.5621 14.3261 23.5821C15.0141 24.5721 15.9021 25.4901 16.9901 26.1501C18.8541 27.3381 21.1521 27.6921 23.2881 27.4701C23.8941 28.0681 24.5141 28.5381 25.2221 28.9881C26.1961 29.6041 27.2821 30.0561 28.4161 30.3141C30.6921 30.8221 33.1421 30.3321 34.7881 28.9421C32.6421 28.8881 30.8621 28.4681 29.3441 27.6061C28.5845 27.193 27.8688 26.7038 27.2081 26.1461ZM50.2941 33.0941C49.7388 32.8538 49.2252 32.5271 48.7721 32.1261C48.3692 31.7697 48.013 31.3638 47.7121 30.9181C47.427 30.5046 47.1851 30.0629 46.9901 29.6001L46.4141 28.0581L44.8501 28.4041C43.3501 28.7341 41.9241 28.9181 40.5341 28.7241C39.1481 28.5421 37.7001 27.9221 36.3081 26.6141C36.2621 28.5801 37.6561 30.5221 39.5841 31.4821C41.0721 32.2221 42.7161 32.4001 44.2601 32.2521C44.5061 32.6081 44.7761 32.9301 45.0921 33.2581C45.7561 33.9161 46.5801 34.4501 47.4741 34.7401C49.2881 35.3361 51.1701 34.9081 52.4041 33.8241C51.6041 33.5801 50.9001 33.3921 50.2941 33.0941Z"
        fill="#A8A7AB" />
    <path
        d="M113.122 103.526C113.362 97.356 115.12 94.524 117.776 90.234L118.416 89.2C123.358 81.16 125.032 74.888 123.388 70.55C122.26 67.564 119.982 66.572 119.352 66.348C116.316 65.04 111.796 64.344 106.274 64.344C103.856 64.344 100.146 64.5 95.384 65.148V53.53H88.086V48.182H72.074L66.52 36.982C66.302 36.888 66.074 36.82 65.852 36.736C65.7389 35.6615 65.3555 34.6332 64.7375 33.747C64.1196 32.8608 63.2872 32.1455 62.318 31.668C62.2452 29.7485 61.6243 27.89 60.5288 26.3122C59.4333 24.7343 57.909 23.5031 56.136 22.764C55.2951 20.5574 53.8037 18.6583 51.8593 17.3182C49.915 15.9782 47.6094 15.2604 45.248 15.26C44.364 15.26 43.486 15.364 42.628 15.564C41.4177 14.2421 39.955 13.1759 38.3262 12.4282C36.6974 11.6804 34.9354 11.2662 33.144 11.21C30.374 6.782 25.478 4 20.212 4C11.784 4 4.926 10.912 4.926 19.408C4.926 27.9 11.782 34.812 20.212 34.812C21.2367 34.8112 22.2586 34.706 23.262 34.498C24.5032 35.744 25.9789 36.7318 27.604 37.4043C29.2291 38.0768 30.9713 38.4206 32.73 38.416C34.8574 38.4188 36.9546 37.912 38.846 36.938C40.722 38.178 42.906 38.854 45.182 38.868C46.4978 40.2836 48.2013 41.2804 50.08 41.734L49.276 48.188H41.76L32.84 51.248V56.988L27.366 59.502V69.872H32.732V74.322L20.214 80.628V92.908C12.428 95.128 7.556 95.806 7.458 95.818L5.852 96.03V103.536H4V124H122.154V103.534H113.12L113.122 103.526ZM46.42 35.958C46.034 36.01 45.65 36.078 45.25 36.078C42.9307 36.0758 40.7044 35.1655 39.048 33.542C37.2188 34.8939 35.0046 35.6242 32.73 35.626C31.0749 35.6244 29.4429 35.2381 27.9629 34.4973C26.4828 33.7566 25.1953 32.6819 24.202 31.358C22.9172 31.7957 21.5693 32.02 20.212 32.022C13.298 32.022 7.696 26.376 7.696 19.408C7.696 12.438 13.298 6.79 20.212 6.79C25.232 6.79 29.548 9.772 31.544 14.07C33.5047 13.8522 35.4874 14.1807 37.273 15.0194C39.0586 15.858 40.5776 17.174 41.662 18.822C42.7908 18.3168 44.0133 18.0552 45.25 18.054C49.476 18.054 52.994 21.016 53.93 24.988C55.5289 25.344 56.9582 26.2353 57.9814 27.5145C59.0045 28.7937 59.56 30.384 59.556 32.022C59.556 32.658 59.45 33.262 59.294 33.85C59.384 33.844 59.468 33.824 59.556 33.824C60.978 33.824 62.192 34.666 62.77 35.874C61.7102 35.6743 60.6344 35.5719 59.556 35.568C56.728 35.568 52.994 36.25 50.614 37.432L50.426 38.942C48.7769 38.4582 47.3557 37.3996 46.42 35.958ZM36.308 55.392H93.538V65.428C92.0533 65.6534 90.5742 65.9142 89.102 66.21H36.308V55.392ZM66.776 72.954C61.6768 75.0091 56.6976 77.3501 51.862 79.966C48.5251 81.7636 45.1271 83.4452 41.674 85.008V68.07H81.248C78.7153 68.7589 76.2048 69.5266 73.72 70.372C73.6448 70.2388 73.5359 70.1278 73.4043 70.0498C73.2727 69.9719 73.1229 69.9299 72.97 69.928H67.604C67.4862 69.9285 67.3696 69.9523 67.261 69.9979C67.1523 70.0436 67.0537 70.1102 66.9709 70.194C66.888 70.2777 66.8225 70.3771 66.7781 70.4862C66.7337 70.5953 66.7112 70.7122 66.712 70.83V72.632C66.712 72.746 66.736 72.854 66.776 72.954ZM34.52 80.522C34.52 80.026 34.888 79.452 35.33 79.238L39.076 77.478C39.522 77.266 39.884 77.5 39.884 77.996V82.082C39.8719 82.3425 39.7872 82.5944 39.6395 82.8093C39.4918 83.0242 39.2869 83.1935 39.048 83.298L35.358 84.686C34.896 84.86 34.518 84.596 34.518 84.1V80.522H34.52ZM28.26 83.464C28.26 82.968 28.628 82.39 29.072 82.18L31.924 80.84C32.368 80.63 32.732 80.864 32.732 81.36V84.772C32.7202 85.0325 32.6356 85.2846 32.4878 85.4995C32.34 85.7144 32.135 85.8836 31.896 85.988L29.102 87.04C28.642 87.212 28.262 86.948 28.262 86.452V83.464H28.26ZM22 86.404C22 85.908 22.368 85.334 22.812 85.124L25.664 83.782C26.108 83.572 26.472 83.806 26.472 84.302V87.13C26.4599 87.3905 26.3752 87.6424 26.2275 87.8573C26.0798 88.0722 25.8749 88.2415 25.636 88.346L22.842 89.396C22.382 89.568 22.002 89.306 22.002 88.81V86.404H22ZM9.542 99.252C14.85 98.336 32.482 94.648 53.604 83.246C78.968 69.546 98.888 68.068 106.276 68.068C111.268 68.068 115.416 68.682 117.956 69.796L118.17 69.872C118.18 69.876 119.35 70.312 119.94 71.874C120.132 72.378 120.288 73.098 120.296 74.062C119.25 73.1626 118.069 72.4343 116.796 71.904C105.72 68.778 80.394 71.05 52.312 86.216C32.228 97.06 15.04 99.632 9.542 100.206V99.252ZM109.168 112.266C102.792 113.534 76.636 118.416 52.656 118.416C39.868 118.416 29.682 117.042 22.374 114.336C19.562 113.294 15.206 111.256 9.542 105.568V102.01C15.116 101.44 32.706 98.848 53.154 87.806C80.392 73.098 105.526 70.706 116.142 73.582C117.27 74.04 118.88 74.912 120.064 76.35C119.588 78.85 118.274 82.366 115.274 87.242L114.646 88.264C111.888 92.71 109.71 96.224 109.434 103.356C109.278 106.324 109.189 109.294 109.168 112.266Z"
        fill="#A8A7AB" />
</svg>