<svg width="128" height="128" viewBox="0 0 128 128" fill="none" xmlns="http://www.w3.org/2000/svg">
    <g clip-path="url(#clip0_30_480)">
        <path fill-rule="evenodd" clip-rule="evenodd"
            d="M106.39 0C97.5834 0 90.1363 6.0608 87.9846 14.1978L85.6154 13.097C85.1927 12.9005 84.7323 12.7987 84.2662 12.7987C83.8002 12.7987 83.3397 12.9005 82.9171 13.097L43.7325 31.2998L4.54784 13.0982C4.06026 12.8718 3.5235 12.7719 2.9871 12.8076C2.4507 12.8434 1.93195 13.0137 1.47876 13.3029C1.02556 13.592 0.652516 13.9907 0.394066 14.4621C0.135616 14.9335 9.02815e-05 15.4624 8.63046e-08 16V105.967C-0.000141585 106.577 0.174137 107.175 0.502293 107.689C0.83045 108.204 1.29881 108.613 1.85216 108.87L42.3846 127.698C42.8073 127.894 43.2677 127.996 43.7338 127.996C44.1998 127.996 44.6603 127.894 45.0829 127.698L84.2675 109.496L123.452 127.698C125.573 128.682 128 127.135 128 124.797V34.8301C128 34.22 127.826 33.6225 127.498 33.1082C127.17 32.5938 126.701 32.184 126.148 31.927L122.013 30.0045L123.308 27.8003C123.602 27.2666 123.836 26.6982 124.037 26.1171C124.964 23.858 125.441 21.4396 125.44 18.9978C125.44 8.5568 116.861 0 106.39 0ZM106.39 8.89984C112.028 8.89984 116.512 13.3747 116.512 18.9978C116.512 24.6195 112.028 29.0906 106.39 29.0906C100.751 29.0906 96.2675 24.6195 96.2675 18.9978C96.2675 13.3747 100.751 8.89984 106.39 8.89984ZM85.6973 20.192L87.4598 21.0125C87.8037 24.2109 88.9604 27.2681 90.8198 29.8931L104.065 52.7923C105.921 55.2166 107.155 54.7558 108.698 52.6643L118.755 35.5469L121.6 36.8704V119.782L86.1722 103.325L85.8829 52.5402C86.4051 52.6528 86.9261 52.7616 87.4496 52.8858L88.6272 47.9053C87.7058 47.6874 86.7806 47.4856 85.8522 47.2998L85.6986 20.192H85.6973ZM81.8598 20.6451L82.007 46.6752C80.6851 46.4938 79.3555 46.3738 78.0224 46.3155L77.833 51.4304C79.2256 51.4816 80.6298 51.6326 82.0378 51.8374L82.3322 103.337L45.6269 120.39L45.1546 37.6973L81.8598 20.6464V20.6451ZM6.4 21.015L41.312 37.2326L41.7869 120.365L6.4 103.924V21.015ZM72.375 46.665C70.6125 46.9811 68.809 47.5456 67.1296 48.5222C65.1207 49.6854 63.4687 51.3764 62.3526 53.4118L66.8352 55.8848C67.5031 54.6689 68.4876 53.6564 69.6845 52.9549L69.6922 52.9498L69.6998 52.9446C70.7328 52.343 71.9629 51.9386 73.28 51.703L72.375 46.665ZM93.7075 49.2646L92.2573 54.1722C95.4611 55.1194 98.6342 56.2074 101.789 57.385L103.58 52.5875C100.339 51.3792 97.0522 50.2528 93.7075 49.2646ZM60.425 58.9875L60.3866 59.1898L60.3827 59.2077C59.744 62.8314 59.8118 66.3974 59.9552 69.7869L65.0701 69.5693C64.9306 66.281 64.9011 63.0989 65.4246 60.1126L65.4554 59.9526L60.425 58.9875ZM65.3747 74.6163L60.2675 74.9619C60.4979 78.3782 60.7437 81.7267 60.7347 85.0099L65.8547 85.0227C65.865 81.4771 65.6051 78.0109 65.3747 74.6163ZM60.48 89.8355C60.3392 91.0554 60.1293 92.2419 59.8221 93.3811L59.8195 93.3875L59.817 93.3978C59.369 95.1066 58.615 96.6886 57.5629 97.9277L61.463 101.243C63.1117 99.3037 64.1574 97.0214 64.7654 94.7123L64.768 94.7046C65.152 93.2762 65.4016 91.8374 65.5654 90.4166L60.48 89.8355ZM17.257 94.825L14.9581 99.3997C18.1325 100.996 21.4157 102.316 24.7219 103.457L26.3923 98.6176C23.2499 97.5334 20.1818 96.2944 17.257 94.825ZM31.127 100.09L29.7651 105.025C33.152 105.961 36.6336 106.705 40.192 107.105L40.7629 102.017C37.536 101.655 34.3181 100.972 31.127 100.09ZM54.3475 100.451C51.7978 101.756 48.7194 102.239 45.5539 102.277L45.6179 107.397C49.2454 107.354 53.1238 106.829 56.6797 105.007L54.3475 100.451Z"
            fill="#A8A7AB" />
    </g>
    <defs>
        <clipPath id="clip0_30_480">
            <rect width="128" height="128" fill="white" />
        </clipPath>
    </defs>
</svg>